<?xml version="1.0" encoding="utf-8"?>
<!-- Generator: Adobe Illustrator 25.0.0, SVG Export Plug-In . SVG Version: 6.00 Build 0)  -->
<svg version="1.1" xmlns="http://www.w3.org/2000/svg" xmlns:xlink="http://www.w3.org/1999/xlink" x="0px" y="0px"
	 viewBox="0 0 375 245" style="enable-background:new 0 0 375 245;" xml:space="preserve">
<style type="text/css">
	.st0{fill:#F6F6F6;}
	.st1{fill:#FF3146;}
	.st2{fill:none;stroke:#000000;stroke-width:1.5;stroke-linecap:round;stroke-linejoin:round;}
	.st3{fill:none;}
	.st4{fill:#242424;}
	.st5{fill:none;stroke:#FFFFFF;stroke-width:1.5;stroke-linecap:round;stroke-linejoin:round;}
	.st6{fill:#FFFFFF;}
	.st7{fill:#696969;}
	.st8{font-family:'SFProDisplay-Regular';}
	.st9{font-size:20px;}
	.st10{font-size:22px;}
	.st11{fill:#565656;}
	.st12{font-size:30px;}
	.st13{font-size:16px;}
</style>
<g id="Capa_2">
</g>
<g id="Capa_1">
	<g>
		<path class="st0" d="M259.5,226.6H117.9c-10.6,0-19.2-8.6-19.2-19.2V65.8c0-10.6,8.6-19.2,19.2-19.2h141.6
			c10.6,0,19.2,8.6,19.2,19.2v141.6C278.7,218,270.1,226.6,259.5,226.6z"/>
	</g>
	<path class="st1" d="M253.8,211.6H123.6c-1.1,0-1.9-0.9-1.9-1.9v-0.2c0-1.1,0.9-1.9,1.9-1.9h130.2c1.1,0,1.9,0.9,1.9,1.9v0.2
		C255.7,210.8,254.8,211.6,253.8,211.6z"/>
	<path class="st1" d="M253.3,65.6H123.1c-1.1,0-1.9-0.9-1.9-1.9v-0.2c0-1.1,0.9-1.9,1.9-1.9h130.2c1.1,0,1.9,0.9,1.9,1.9v0.2
		C255.2,64.8,254.4,65.6,253.3,65.6z"/>
	<text transform="matrix(1 0 0 1 115.8491 96.9233)" class="st7 st8 st9">82</text>
	<text transform="matrix(1 0 0 1 165.6953 184.9233)" class="st7 st8 st10">Lead</text>
	<text transform="matrix(1 0 0 1 201.9819 96.9233)" class="st7 st8 st9">207.21</text>
	<text transform="matrix(1 0 0 1 171.7402 145.0452)" class="st11 st8 st12">Pb</text>
	<text transform="matrix(1 0 0 1 26.0083 32.019)" class="st8 st13">Element category</text>
	<g id="vuesax_linear_arrow-down_1_" transform="translate(-108 -252)">
		<g id="arrow-down_1_">
			<path id="Vector_9_" class="st2" d="M285.3,298.4l-7.1,7.1l-7.1-7.1"/>
			<path class="st2" d="M257.9,279.6h15.6c2.6,0,4.8,2.1,4.8,4.8v20.9"/>
			<path id="Vector-3_9_" class="st3" d="M292.3,309.6h-28.2v-28.2h28.2V309.6z"/>
		</g>
	</g>
	<g>
		<path d="M31.3,71.9h1.4l4.2,11.3h-1.5L34.2,80h-4.5l-1.1,3.2h-1.5L31.3,71.9z M30.1,78.8h3.7L32,73.6h0L30.1,78.8z"/>
		<path d="M37.9,81.1v-4.9h-1.2v-1.1h1.2v-2.2h1.4v2.2h1.5v1.1h-1.5v4.9c0,0.9,0.4,1.1,1.1,1.1c0.2,0,0.3,0,0.4,0v1.1
			c-0.2,0-0.5,0.1-0.7,0.1C38.7,83.3,37.9,82.7,37.9,81.1z"/>
		<path d="M41.7,79.1L41.7,79.1c0-2.6,1.5-4.2,3.8-4.2s3.8,1.6,3.8,4.2v0c0,2.6-1.5,4.2-3.8,4.2C43.2,83.3,41.7,81.7,41.7,79.1z
			 M47.8,79.1L47.8,79.1c0-1.9-0.9-3-2.4-3c-1.4,0-2.4,1.1-2.4,3v0c0,1.9,0.9,3,2.4,3C46.9,82.1,47.8,81,47.8,79.1z"/>
		<path d="M50.6,75.1H52v1.2h0c0.4-0.8,1.2-1.3,2.2-1.3c1.1,0,1.9,0.6,2.3,1.6h0c0.5-1,1.4-1.6,2.5-1.6c1.6,0,2.6,1.1,2.6,2.7v5.6
			h-1.4v-5.3c0-1.1-0.6-1.8-1.7-1.8c-1.1,0-1.8,0.8-1.8,1.9v5.2h-1.4v-5.4c0-1-0.7-1.6-1.7-1.6c-1.1,0-1.9,0.9-1.9,2v5.1h-1.4V75.1z
			"/>
		<path d="M63.4,72.8c0-0.5,0.4-0.9,0.9-0.9c0.5,0,0.9,0.4,0.9,0.9c0,0.5-0.4,0.9-0.9,0.9C63.8,73.7,63.4,73.3,63.4,72.8z
			 M63.5,75.1h1.4v8.1h-1.4V75.1z"/>
		<path d="M66.4,79.1L66.4,79.1c0-2.6,1.5-4.2,3.8-4.2c2,0,3.2,1.3,3.4,2.7l0,0.1h-1.3l0-0.1c-0.2-0.8-0.9-1.5-2.1-1.5
			c-1.4,0-2.4,1.2-2.4,3v0c0,1.9,1,3,2.4,3c1.1,0,1.8-0.6,2-1.5l0-0.1h1.3l0,0.1c-0.2,1.5-1.6,2.7-3.4,2.7
			C67.8,83.3,66.4,81.7,66.4,79.1z"/>
		<path d="M27.8,91.1h1.4v1.2h0c0.4-0.8,1.3-1.3,2.5-1.3c1.8,0,2.8,1.2,2.8,3v5.3h-1.4v-5c0-1.3-0.6-2-1.9-2c-1.3,0-2.1,0.9-2.1,2.3
			v4.8h-1.4V91.1z"/>
		<path d="M36.1,96.3v-5.3h1.4v5c0,1.3,0.6,2,1.9,2c1.3,0,2.1-0.9,2.1-2.3v-4.8h1.4v8.1h-1.4V98h0c-0.4,0.8-1.3,1.3-2.5,1.3
			C37.2,99.3,36.1,98.2,36.1,96.3z"/>
		<path d="M44.6,91.1H46v1.2h0c0.4-0.8,1.2-1.3,2.2-1.3c1.1,0,1.9,0.6,2.3,1.6h0c0.5-1,1.4-1.6,2.5-1.6c1.6,0,2.6,1.1,2.6,2.7v5.6
			h-1.4v-5.3c0-1.1-0.6-1.8-1.7-1.8c-1.1,0-1.8,0.8-1.8,1.9v5.2h-1.4v-5.4c0-1-0.7-1.6-1.7-1.6c-1.1,0-1.9,0.9-1.9,2v5.1h-1.4V91.1z
			"/>
		<path d="M58.9,97.8L58.9,97.8l0,1.4h-1.4V87.9h1.4v4.5h0c0.5-0.9,1.5-1.5,2.6-1.5c2,0,3.4,1.6,3.4,4.2v0c0,2.6-1.4,4.2-3.5,4.2
			C60.3,99.3,59.4,98.8,58.9,97.8z M63.6,95.1L63.6,95.1c0-1.9-0.9-3-2.3-3c-1.4,0-2.4,1.2-2.4,3v0c0,1.8,1,3,2.4,3
			C62.7,98.1,63.6,97,63.6,95.1z"/>
		<path d="M65.9,95.2L65.9,95.2c0-2.5,1.4-4.2,3.7-4.2s3.6,1.6,3.6,4.1v0.5h-5.9c0,1.7,1,2.6,2.4,2.6c1,0,1.8-0.5,2-1.2l0-0.1h1.3
			l0,0.1c-0.3,1.3-1.6,2.4-3.4,2.4C67.3,99.3,65.9,97.7,65.9,95.2z M67.3,94.4h4.4c-0.1-1.6-1-2.3-2.2-2.3
			C68.4,92.1,67.5,92.9,67.3,94.4z"/>
		<path d="M74.5,91.1h1.4v1.4h0c0.3-0.9,1-1.5,1.9-1.5c0.2,0,0.4,0,0.5,0.1v1.3c-0.1,0-0.4-0.1-0.7-0.1c-1.1,0-1.7,0.7-1.7,2v5h-1.4
			V91.1z"/>
	</g>
	<g>
		<path d="M27.4,137.3l0-0.1h1.4l0,0.1c0.2,1.1,1.3,1.8,2.9,1.8c1.6,0,2.6-0.7,2.6-1.9v0c0-1-0.6-1.5-2.2-1.9l-1.2-0.3
			c-2.2-0.5-3.2-1.5-3.2-3.1v0c0-1.9,1.6-3.1,4-3.1c2.2,0,3.8,1.3,3.9,3.1l0,0.1h-1.4l0-0.1c-0.2-1.1-1.1-1.8-2.6-1.8
			c-1.5,0-2.5,0.7-2.5,1.8v0c0,0.9,0.7,1.5,2.1,1.8l1.2,0.3c2.3,0.5,3.3,1.4,3.3,3.2v0c0,2-1.6,3.3-4.2,3.3
			C29.2,140.4,27.6,139.2,27.4,137.3z"/>
		<path d="M37.3,142.9v-1.1c0.1,0,0.3,0,0.4,0c0.9,0,1.3-0.2,1.7-1.1l0.2-0.5l-3-8.1H38l2.2,6.8h0l2.2-6.8H44l-3.2,8.6
			c-0.6,1.6-1.3,2.2-2.8,2.2C37.8,142.9,37.5,142.9,37.3,142.9z"/>
		<path d="M45,132.1h1.4v1.2h0c0.4-0.8,1.2-1.3,2.2-1.3c1.1,0,1.9,0.6,2.3,1.6h0c0.5-1,1.4-1.6,2.5-1.6c1.6,0,2.6,1.1,2.6,2.7v5.6
			h-1.4v-5.3c0-1.1-0.6-1.8-1.7-1.8c-1.1,0-1.8,0.8-1.8,1.9v5.2h-1.4v-5.4c0-1-0.7-1.6-1.7-1.6c-1.1,0-1.9,0.9-1.9,2v5.1H45V132.1z"
			/>
		<path d="M59.3,138.8L59.3,138.8l0,1.4h-1.4v-11.3h1.4v4.5h0c0.5-0.9,1.5-1.5,2.6-1.5c2,0,3.4,1.6,3.4,4.2v0c0,2.6-1.4,4.2-3.5,4.2
			C60.8,140.3,59.8,139.8,59.3,138.8z M64,136.1L64,136.1c0-1.9-0.9-3-2.3-3c-1.4,0-2.4,1.2-2.4,3v0c0,1.8,1,3,2.4,3
			C63.1,139.1,64,138,64,136.1z"/>
		<path d="M66.3,136.1L66.3,136.1c0-2.6,1.5-4.2,3.8-4.2s3.8,1.6,3.8,4.2v0c0,2.6-1.5,4.2-3.8,4.2C67.8,140.3,66.3,138.7,66.3,136.1
			z M72.5,136.1L72.5,136.1c0-1.9-0.9-3-2.4-3c-1.4,0-2.4,1.1-2.4,3v0c0,1.9,0.9,3,2.4,3C71.5,139.1,72.5,138,72.5,136.1z"/>
		<path d="M75.3,128.9h1.4v11.3h-1.4V128.9z"/>
	</g>
	<g>
		<path d="M303.1,71.9h1.4l4.2,11.3h-1.5L306,80h-4.5l-1.1,3.2h-1.5L303.1,71.9z M301.9,78.8h3.7l-1.8-5.2h0L301.9,78.8z"/>
		<path d="M309.8,81.1v-4.9h-1.2v-1.1h1.2v-2.2h1.4v2.2h1.5v1.1h-1.5v4.9c0,0.9,0.4,1.1,1.1,1.1c0.2,0,0.3,0,0.4,0v1.1
			c-0.2,0-0.5,0.1-0.7,0.1C310.5,83.3,309.8,82.7,309.8,81.1z"/>
		<path d="M313.5,79.1L313.5,79.1c0-2.6,1.5-4.2,3.8-4.2s3.8,1.6,3.8,4.2v0c0,2.6-1.5,4.2-3.8,4.2C315,83.3,313.5,81.7,313.5,79.1z
			 M319.7,79.1L319.7,79.1c0-1.9-0.9-3-2.4-3c-1.4,0-2.4,1.1-2.4,3v0c0,1.9,0.9,3,2.4,3C318.7,82.1,319.7,81,319.7,79.1z"/>
		<path d="M322.4,75.1h1.4v1.2h0c0.4-0.8,1.2-1.3,2.2-1.3c1.1,0,1.9,0.6,2.3,1.6h0c0.5-1,1.4-1.6,2.5-1.6c1.6,0,2.6,1.1,2.6,2.7v5.6
			h-1.4v-5.3c0-1.1-0.6-1.8-1.7-1.8c-1.1,0-1.8,0.8-1.8,1.9v5.2h-1.4v-5.4c0-1-0.7-1.6-1.7-1.6c-1.1,0-1.9,0.9-1.9,2v5.1h-1.4V75.1z
			"/>
		<path d="M335.2,72.8c0-0.5,0.4-0.9,0.9-0.9c0.5,0,0.9,0.4,0.9,0.9c0,0.5-0.4,0.9-0.9,0.9C335.6,73.7,335.2,73.3,335.2,72.8z
			 M335.4,75.1h1.4v8.1h-1.4V75.1z"/>
		<path d="M338.2,79.1L338.2,79.1c0-2.6,1.5-4.2,3.8-4.2c2,0,3.2,1.3,3.4,2.7l0,0.1H344l0-0.1c-0.2-0.8-0.9-1.5-2.1-1.5
			c-1.4,0-2.4,1.2-2.4,3v0c0,1.9,1,3,2.4,3c1.1,0,1.8-0.6,2-1.5l0-0.1h1.3l0,0.1c-0.2,1.5-1.6,2.7-3.4,2.7
			C339.6,83.3,338.2,81.7,338.2,79.1z"/>
		<path d="M310.8,91.1h1.4v1.2h0c0.4-0.8,1.2-1.3,2.2-1.3c1.1,0,1.9,0.6,2.3,1.6h0c0.5-1,1.4-1.6,2.5-1.6c1.6,0,2.6,1.1,2.6,2.7v5.6
			h-1.4v-5.3c0-1.1-0.6-1.8-1.7-1.8c-1.1,0-1.8,0.8-1.8,1.9v5.2h-1.4v-5.4c0-1-0.7-1.6-1.7-1.6c-1.1,0-1.9,0.9-1.9,2v5.1h-1.4V91.1z
			"/>
		<path d="M323.3,96.9L323.3,96.9c0-1.4,1.1-2.3,2.9-2.4l2.3-0.1v-0.7c0-1-0.6-1.6-1.8-1.6c-1,0-1.7,0.5-1.9,1.2l0,0.1h-1.3l0-0.1
			c0.1-1.3,1.3-2.4,3.2-2.4c1.9,0,3.1,1,3.1,2.7v5.6h-1.4v-1.3h0c-0.5,0.9-1.5,1.5-2.5,1.5C324.4,99.3,323.3,98.4,323.3,96.9z
			 M326.4,98.2c1.3,0,2.3-0.9,2.3-2.1v-0.7l-2.2,0.1c-1.1,0.1-1.7,0.5-1.7,1.3v0C324.7,97.7,325.4,98.2,326.4,98.2z"/>
		<path d="M331.4,96.9L331.4,96.9l1.4-0.1l0,0.1c0.2,0.8,0.8,1.3,1.9,1.3c1.1,0,1.8-0.5,1.8-1.2v0c0-0.6-0.3-0.9-1.2-1.1l-1.3-0.3
			c-1.5-0.4-2.3-1.1-2.3-2.2v0c0-1.4,1.2-2.4,3-2.4c1.8,0,2.9,1,3,2.4l0,0.1h-1.3l0-0.1c-0.1-0.8-0.7-1.3-1.7-1.3
			c-1,0-1.6,0.5-1.6,1.2v0c0,0.6,0.4,0.9,1.3,1.2l1.3,0.3c1.6,0.4,2.2,1,2.2,2.2v0c0,1.4-1.3,2.4-3.2,2.4
			C332.7,99.3,331.5,98.4,331.4,96.9z"/>
		<path d="M338.8,96.9L338.8,96.9l1.4-0.1l0,0.1c0.2,0.8,0.8,1.3,1.9,1.3c1.1,0,1.8-0.5,1.8-1.2v0c0-0.6-0.3-0.9-1.2-1.1l-1.3-0.3
			c-1.5-0.4-2.3-1.1-2.3-2.2v0c0-1.4,1.2-2.4,3-2.4c1.8,0,2.9,1,3,2.4l0,0.1h-1.3l0-0.1c-0.1-0.8-0.7-1.3-1.7-1.3
			c-1,0-1.6,0.5-1.6,1.2v0c0,0.6,0.4,0.9,1.3,1.2l1.3,0.3c1.6,0.4,2.2,1,2.2,2.2v0c0,1.4-1.3,2.4-3.2,2.4
			C340.1,99.3,339,98.4,338.8,96.9z"/>
	</g>
	<g>
		<path d="M306.8,172.9h1.4l6.2,8.9h0v-8.9h1.4v11.3h-1.4l-6.2-8.9h0v8.9h-1.4V172.9z"/>
		<path d="M317.2,181.9L317.2,181.9c0-1.4,1.1-2.3,2.9-2.4l2.3-0.1v-0.7c0-1-0.6-1.6-1.8-1.6c-1,0-1.7,0.5-1.9,1.2l0,0.1h-1.3l0-0.1
			c0.1-1.3,1.3-2.4,3.2-2.4c1.9,0,3.1,1,3.1,2.7v5.6h-1.4v-1.3h0c-0.5,0.9-1.5,1.5-2.5,1.5C318.3,184.3,317.2,183.4,317.2,181.9z
			 M320.2,183.2c1.3,0,2.3-0.9,2.3-2.1v-0.7l-2.2,0.1c-1.1,0.1-1.7,0.5-1.7,1.3v0C318.6,182.7,319.2,183.2,320.2,183.2z"/>
		<path d="M325.5,176.1h1.4v1.2h0c0.4-0.8,1.2-1.3,2.2-1.3c1.1,0,1.9,0.6,2.3,1.6h0c0.5-1,1.4-1.6,2.5-1.6c1.6,0,2.6,1.1,2.6,2.7
			v5.6h-1.4v-5.3c0-1.1-0.6-1.8-1.7-1.8c-1.1,0-1.8,0.8-1.8,1.9v5.2h-1.4v-5.4c0-1-0.7-1.6-1.7-1.6c-1.1,0-1.9,0.9-1.9,2v5.1h-1.4
			V176.1z"/>
		<path d="M338,180.2L338,180.2c0-2.5,1.4-4.2,3.7-4.2s3.6,1.6,3.6,4.1v0.5h-5.9c0,1.7,1,2.6,2.4,2.6c1,0,1.8-0.5,2-1.2l0-0.1h1.3
			l0,0.1c-0.3,1.3-1.6,2.4-3.4,2.4C339.4,184.3,338,182.7,338,180.2z M339.4,179.4h4.4c-0.1-1.6-1-2.3-2.2-2.3
			C340.5,177.1,339.5,177.9,339.4,179.4z"/>
	</g>
	<g id="vuesax_linear_arrow-right_7_" transform="translate(-620 -188)">
		<g id="arrow-right_7_">
			<path id="Vector_8_" class="st2" d="M719.4,269.8l5.9,5.9l-5.9,5.9"/>
			<path id="Vector-2_7_" class="st2" d="M705.6,275.7h19.6"/>
			<path id="Vector-3_8_" class="st3" d="M728.7,287.4h-23.3v-23.3h23.3V287.4z"/>
		</g>
	</g>
	<g id="vuesax_linear_arrow-right_6_" transform="translate(-620 -188)">
		<g id="arrow-right_6_">
			<path id="Vector_7_" class="st2" d="M759.4,318.8l5.9,5.9l-5.9,5.9"/>
			<path id="Vector-2_6_" class="st2" d="M728.7,324.7h36.4"/>
			<path id="Vector-3_7_" class="st3" d="M768.7,336.4h-23.3v-23.3h23.3V336.4z"/>
		</g>
	</g>
	<g id="vuesax_linear_arrow-right_5_" transform="translate(-620 -188)">
		<g id="arrow-right_5_">
			<path id="Vector_6_" class="st2" d="M860,372.6l-5.9-5.9l5.9-5.9"/>
			<path id="Vector-2_5_" class="st2" d="M854.3,366.7h36.4"/>
			<path id="Vector-3_6_" class="st3" d="M850.7,355.1H874v23.3h-23.3V355.1z"/>
		</g>
	</g>
	<g id="vuesax_linear_arrow-right_4_" transform="translate(-620 -188)">
		<g id="arrow-right_4_">
			<path id="Vector_5_" class="st2" d="M897.7,281.6l-5.9-5.9l5.9-5.9"/>
			<path id="Vector-2_4_" class="st2" d="M892,275.7h19.6"/>
			<path id="Vector-3_2_" class="st3" d="M888.4,264.1h23.3v23.3h-23.3V264.1z"/>
		</g>
	</g>
</g>
</svg>
