<?xml version="1.0" encoding="utf-8"?>
<!-- Generator: Adobe Illustrator 25.0.0, SVG Export Plug-In . SVG Version: 6.00 Build 0)  -->
<svg version="1.1" id="Capa_1" xmlns="http://www.w3.org/2000/svg" xmlns:xlink="http://www.w3.org/1999/xlink" x="0px" y="0px"
	 viewBox="0 0 375 245" style="enable-background:new 0 0 375 245;" xml:space="preserve">
<style type="text/css">
	.st0{fill:#242424;}
	.st1{fill:#FF3146;}
	.st2{fill:#969696;}
	.st3{font-family:'SFProDisplay-Regular';}
	.st4{font-size:20px;}
	.st5{font-size:22px;}
	.st6{fill:#C6C6C6;}
	.st7{font-size:30px;}
	.st8{fill:#FFFFFF;}
	.st9{font-size:16px;}
	.st10{fill:none;stroke:#FFFFFF;stroke-width:1.5;stroke-linecap:round;stroke-linejoin:round;}
	.st11{fill:none;}
	.st12{enable-background:new    ;}
</style>
<g id="Capa_2_1_">
</g>
<g id="Capa_1_1_">
	<g>
		<path class="st0" d="M259.5,226.6H117.9c-10.6,0-19.2-8.6-19.2-19.2V65.8c0-10.6,8.6-19.2,19.2-19.2h141.6
			c10.6,0,19.2,8.6,19.2,19.2v141.6C278.7,218,270.1,226.6,259.5,226.6z"/>
	</g>
	<path class="st1" d="M253.8,211.6H123.6c-1.1,0-1.9-0.9-1.9-1.9v-0.2c0-1.1,0.9-1.9,1.9-1.9h130.2c1.1,0,1.9,0.9,1.9,1.9v0.2
		C255.7,210.8,254.8,211.6,253.8,211.6z"/>
	<path class="st1" d="M253.3,65.6H123.1c-1.1,0-1.9-0.9-1.9-1.9v-0.2c0-1.1,0.9-1.9,1.9-1.9h130.2c1.1,0,1.9,0.9,1.9,1.9v0.2
		C255.2,64.8,254.4,65.6,253.3,65.6z"/>
	<text transform="matrix(1 0 0 1 115.8491 96.9233)" class="st2 st3 st4">82</text>
	<text transform="matrix(1 0 0 1 165.6953 184.9233)" class="st2 st3 st5">Lead</text>
	<text transform="matrix(1 0 0 1 201.9819 96.9233)" class="st2 st3 st4">207.21</text>
	<text transform="matrix(1 0 0 1 171.7402 145.0452)" class="st6 st3 st7">Pb</text>
	<text transform="matrix(1 0 0 1 26.0083 32.019)" class="st8 st3 st9">Element category</text>
	<g id="vuesax_linear_arrow-down_3_" transform="translate(-108 -252)">
		<g id="arrow-down_3_">
			<path id="Vector_15_" class="st10" d="M285.3,298.4l-7.1,7.1l-7.1-7.1"/>
			<path class="st10" d="M257.9,279.6h15.6c2.6,0,4.8,2.1,4.8,4.8v20.9"/>
			<path id="Vector-3_15_" class="st11" d="M292.3,309.6h-28.2v-28.2h28.2V309.6z"/>
		</g>
	</g>
	<g>
		<path class="st8" d="M31.3,71.9h1.4l4.2,11.3h-1.5L34.2,80h-4.5l-1.1,3.2h-1.5L31.3,71.9z M30.1,78.8h3.7L32,73.6l0,0L30.1,78.8z"
			/>
		<path class="st8" d="M37.9,81.1v-4.9h-1.2v-1.1h1.2v-2.2h1.4v2.2h1.5v1.1h-1.5v4.9c0,0.9,0.4,1.1,1.1,1.1c0.2,0,0.3,0,0.4,0v1.1
			c-0.2,0-0.5,0.1-0.7,0.1C38.7,83.3,37.9,82.7,37.9,81.1z"/>
		<path class="st8" d="M41.7,79.1L41.7,79.1c0-2.6,1.5-4.2,3.8-4.2s3.8,1.6,3.8,4.2l0,0c0,2.6-1.5,4.2-3.8,4.2
			C43.2,83.3,41.7,81.7,41.7,79.1z M47.8,79.1L47.8,79.1c0-1.9-0.9-3-2.4-3c-1.4,0-2.4,1.1-2.4,3l0,0c0,1.9,0.9,3,2.4,3
			C46.9,82.1,47.8,81,47.8,79.1z"/>
		<path class="st8" d="M50.6,75.1H52v1.2l0,0c0.4-0.8,1.2-1.3,2.2-1.3c1.1,0,1.9,0.6,2.3,1.6l0,0c0.5-1,1.4-1.6,2.5-1.6
			c1.6,0,2.6,1.1,2.6,2.7v5.6h-1.4V78c0-1.1-0.6-1.8-1.7-1.8c-1.1,0-1.8,0.8-1.8,1.9v5.2h-1.4v-5.4c0-1-0.7-1.6-1.7-1.6
			c-1.1,0-1.9,0.9-1.9,2v5.1h-1.4v-8.3H50.6z"/>
		<path class="st8" d="M63.4,72.8c0-0.5,0.4-0.9,0.9-0.9s0.9,0.4,0.9,0.9s-0.4,0.9-0.9,0.9C63.8,73.7,63.4,73.3,63.4,72.8z
			 M63.5,75.1h1.4v8.1h-1.4V75.1z"/>
		<path class="st8" d="M66.4,79.1L66.4,79.1c0-2.6,1.5-4.2,3.8-4.2c2,0,3.2,1.3,3.4,2.7v0.1h-1.3v-0.1c-0.2-0.8-0.9-1.5-2.1-1.5
			c-1.4,0-2.4,1.2-2.4,3l0,0c0,1.9,1,3,2.4,3c1.1,0,1.8-0.6,2-1.5v-0.1h1.3v0.1c-0.2,1.5-1.6,2.7-3.4,2.7
			C67.8,83.3,66.4,81.7,66.4,79.1z"/>
		<path class="st8" d="M27.8,91.1h1.4v1.2l0,0c0.4-0.8,1.3-1.3,2.5-1.3c1.8,0,2.8,1.2,2.8,3v5.3h-1.4v-5c0-1.3-0.6-2-1.9-2
			c-1.3,0-2.1,0.9-2.1,2.3v4.8h-1.4v-8.3H27.8z"/>
		<path class="st8" d="M36.1,96.3V91h1.4v5c0,1.3,0.6,2,1.9,2c1.3,0,2.1-0.9,2.1-2.3v-4.8h1.4V99h-1.4v-1l0,0
			c-0.4,0.8-1.3,1.3-2.5,1.3C37.2,99.3,36.1,98.2,36.1,96.3z"/>
		<path class="st8" d="M44.6,91.1H46v1.2l0,0c0.4-0.8,1.2-1.3,2.2-1.3c1.1,0,1.9,0.6,2.3,1.6l0,0c0.5-1,1.4-1.6,2.5-1.6
			c1.6,0,2.6,1.1,2.6,2.7v5.6h-1.4V94c0-1.1-0.6-1.8-1.7-1.8c-1.1,0-1.8,0.8-1.8,1.9v5.2h-1.4v-5.4c0-1-0.7-1.6-1.7-1.6
			c-1.1,0-1.9,0.9-1.9,2v5.1h-1.4v-8.3H44.6z"/>
		<path class="st8" d="M58.9,97.8L58.9,97.8v1.4h-1.4V87.9h1.4v4.5l0,0c0.5-0.9,1.5-1.5,2.6-1.5c2,0,3.4,1.6,3.4,4.2l0,0
			c0,2.6-1.4,4.2-3.5,4.2C60.3,99.3,59.4,98.8,58.9,97.8z M63.6,95.1L63.6,95.1c0-1.9-0.9-3-2.3-3c-1.4,0-2.4,1.2-2.4,3l0,0
			c0,1.8,1,3,2.4,3S63.6,97,63.6,95.1z"/>
		<path class="st8" d="M65.9,95.2L65.9,95.2c0-2.5,1.4-4.2,3.7-4.2s3.6,1.6,3.6,4.1v0.5h-5.9c0,1.7,1,2.6,2.4,2.6c1,0,1.8-0.5,2-1.2
			v-0.1H73V97c-0.3,1.3-1.6,2.4-3.4,2.4C67.3,99.3,65.9,97.7,65.9,95.2z M67.3,94.4h4.4c-0.1-1.6-1-2.3-2.2-2.3
			C68.4,92.1,67.5,92.9,67.3,94.4z"/>
		<path class="st8" d="M74.5,91.1h1.4v1.4l0,0c0.3-0.9,1-1.5,1.9-1.5c0.2,0,0.4,0,0.5,0.1v1.3c-0.1,0-0.4-0.1-0.7-0.1
			c-1.1,0-1.7,0.7-1.7,2v5h-1.4C74.5,99.3,74.5,91.1,74.5,91.1z"/>
	</g>
	<rect x="26.9" y="128.9" class="st11" width="56.8" height="15.7"/>
	<text transform="matrix(1 0 0 1 26.8711 140.1899)" class="st8 st3 st9">Symbol</text>
	<rect x="291.9" y="71.9" class="st11" width="53.8" height="30.7"/>
	<g class="st12">
		<path class="st8" d="M302.5,71.9h1.4l4.2,11.3h-1.5l-1.1-3.2h-4.5l-1.1,3.2h-1.5L302.5,71.9z M301.3,78.8h3.7l-1.8-5.2h0
			L301.3,78.8z"/>
		<path class="st8" d="M309.1,81.1v-4.9H308v-1.1h1.2v-2.2h1.4v2.2h1.5v1.1h-1.5v4.9c0,0.9,0.4,1.1,1.1,1.1c0.2,0,0.3,0,0.4,0v1.1
			c-0.2,0-0.5,0.1-0.7,0.1C309.9,83.3,309.1,82.7,309.1,81.1z"/>
		<path class="st8" d="M312.9,79.1L312.9,79.1c0-2.6,1.5-4.2,3.8-4.2s3.8,1.6,3.8,4.2v0c0,2.6-1.5,4.2-3.8,4.2
			C314.4,83.3,312.9,81.7,312.9,79.1z M319,79.1L319,79.1c0-1.9-0.9-3-2.4-3c-1.4,0-2.4,1.1-2.4,3v0c0,1.9,0.9,3,2.4,3
			C318.1,82.1,319,81,319,79.1z"/>
		<path class="st8" d="M321.8,75.1h1.4v1.2h0c0.4-0.8,1.2-1.3,2.2-1.3c1.1,0,1.9,0.6,2.3,1.6h0c0.5-1,1.4-1.6,2.5-1.6
			c1.6,0,2.6,1.1,2.6,2.7v5.6h-1.4v-5.3c0-1.1-0.6-1.8-1.7-1.8c-1.1,0-1.8,0.8-1.8,1.9v5.2h-1.4v-5.4c0-1-0.7-1.6-1.7-1.6
			c-1.1,0-1.9,0.9-1.9,2v5.1h-1.4V75.1z"/>
		<path class="st8" d="M334.6,72.8c0-0.5,0.4-0.9,0.9-0.9c0.5,0,0.9,0.4,0.9,0.9c0,0.5-0.4,0.9-0.9,0.9
			C335,73.7,334.6,73.3,334.6,72.8z M334.7,75.1h1.4v8.1h-1.4V75.1z"/>
		<path class="st8" d="M337.6,79.1L337.6,79.1c0-2.6,1.5-4.2,3.8-4.2c2,0,3.2,1.3,3.4,2.7l0,0.1h-1.3l0-0.1
			c-0.2-0.8-0.9-1.5-2.1-1.5c-1.4,0-2.4,1.2-2.4,3v0c0,1.9,1,3,2.4,3c1.1,0,1.8-0.6,2-1.5l0-0.1h1.3l0,0.1c-0.2,1.5-1.6,2.7-3.4,2.7
			C339,83.3,337.6,81.7,337.6,79.1z"/>
	</g>
	<g class="st12">
		<path class="st8" d="M310.9,91.1h1.4v1.2h0c0.4-0.8,1.2-1.3,2.2-1.3c1.1,0,1.9,0.6,2.3,1.6h0c0.5-1,1.4-1.6,2.5-1.6
			c1.6,0,2.6,1.1,2.6,2.7v5.6h-1.4v-5.3c0-1.1-0.6-1.8-1.7-1.8c-1.1,0-1.8,0.8-1.8,1.9v5.2h-1.4v-5.4c0-1-0.7-1.6-1.7-1.6
			c-1.1,0-1.9,0.9-1.9,2v5.1h-1.4V91.1z"/>
		<path class="st8" d="M323.4,96.9L323.4,96.9c0-1.4,1.1-2.3,2.9-2.4l2.3-0.1v-0.7c0-1-0.6-1.6-1.8-1.6c-1,0-1.7,0.5-1.9,1.2l0,0.1
			h-1.3l0-0.1c0.1-1.3,1.3-2.4,3.2-2.4c1.9,0,3.1,1,3.1,2.7v5.6h-1.4v-1.3h0c-0.5,0.9-1.5,1.5-2.5,1.5
			C324.5,99.3,323.4,98.4,323.4,96.9z M326.4,98.2c1.3,0,2.3-0.9,2.3-2.1v-0.7l-2.2,0.1c-1.1,0.1-1.7,0.5-1.7,1.3v0
			C324.8,97.7,325.4,98.2,326.4,98.2z"/>
		<path class="st8" d="M331.4,96.9L331.4,96.9l1.4-0.1l0,0.1c0.2,0.8,0.8,1.3,1.9,1.3c1.1,0,1.8-0.5,1.8-1.2v0
			c0-0.6-0.3-0.9-1.2-1.1l-1.3-0.3c-1.5-0.4-2.3-1.1-2.3-2.2v0c0-1.4,1.2-2.4,3-2.4c1.8,0,2.9,1,3,2.4l0,0.1h-1.3l0-0.1
			c-0.1-0.8-0.7-1.3-1.7-1.3c-1,0-1.6,0.5-1.6,1.2v0c0,0.6,0.4,0.9,1.3,1.2l1.3,0.3c1.6,0.4,2.2,1,2.2,2.2v0c0,1.4-1.3,2.4-3.2,2.4
			C332.7,99.3,331.5,98.4,331.4,96.9z"/>
		<path class="st8" d="M338.8,96.9L338.8,96.9l1.4-0.1l0,0.1c0.2,0.8,0.8,1.3,1.9,1.3c1.1,0,1.8-0.5,1.8-1.2v0
			c0-0.6-0.3-0.9-1.2-1.1l-1.3-0.3c-1.5-0.4-2.3-1.1-2.3-2.2v0c0-1.4,1.2-2.4,3-2.4c1.8,0,2.9,1,3,2.4l0,0.1h-1.3l0-0.1
			c-0.1-0.8-0.7-1.3-1.7-1.3c-1,0-1.6,0.5-1.6,1.2v0c0,0.6,0.4,0.9,1.3,1.2l1.3,0.3c1.6,0.4,2.2,1,2.2,2.2v0c0,1.4-1.3,2.4-3.2,2.4
			C340.1,99.3,339,98.4,338.8,96.9z"/>
	</g>
	<rect x="301.7" y="172.9" class="st11" width="44" height="11.7"/>
	<g class="st12">
		<path class="st8" d="M306.5,172.9h1.4l6.2,8.9h0v-8.9h1.4v11.3h-1.4l-6.2-8.9h0v8.9h-1.4V172.9z"/>
		<path class="st8" d="M317,181.9L317,181.9c0-1.4,1.1-2.3,2.9-2.4l2.3-0.1v-0.7c0-1-0.6-1.6-1.8-1.6c-1,0-1.7,0.5-1.9,1.2l0,0.1
			h-1.3l0-0.1c0.1-1.3,1.3-2.4,3.2-2.4c1.9,0,3.1,1,3.1,2.7v5.6h-1.4v-1.3h0c-0.5,0.9-1.5,1.5-2.5,1.5
			C318,184.3,317,183.4,317,181.9z M320,183.2c1.3,0,2.3-0.9,2.3-2.1v-0.7l-2.2,0.1c-1.1,0.1-1.7,0.5-1.7,1.3v0
			C318.3,182.7,319,183.2,320,183.2z"/>
		<path class="st8" d="M325.3,176.1h1.4v1.2h0c0.4-0.8,1.2-1.3,2.2-1.3c1.1,0,1.9,0.6,2.3,1.6h0c0.5-1,1.4-1.6,2.5-1.6
			c1.6,0,2.6,1.1,2.6,2.7v5.6h-1.4v-5.3c0-1.1-0.6-1.8-1.7-1.8c-1.1,0-1.8,0.8-1.8,1.9v5.2h-1.4v-5.4c0-1-0.7-1.6-1.7-1.6
			c-1.1,0-1.9,0.9-1.9,2v5.1h-1.4V176.1z"/>
		<path class="st8" d="M337.8,180.2L337.8,180.2c0-2.5,1.4-4.2,3.7-4.2s3.6,1.6,3.6,4.1v0.5h-5.9c0,1.7,1,2.6,2.4,2.6
			c1,0,1.8-0.5,2-1.2l0-0.1h1.3l0,0.1c-0.3,1.3-1.6,2.4-3.4,2.4C339.2,184.3,337.8,182.7,337.8,180.2z M339.2,179.4h4.4
			c-0.1-1.6-1-2.3-2.2-2.3C340.2,177.1,339.3,177.9,339.2,179.4z"/>
	</g>
	<g id="vuesax_linear_arrow-right_12_" transform="translate(-620 -188)">
		<g id="arrow-right_12_">
			<path id="Vector_14_" class="st10" d="M719.4,269.8l5.9,5.9l-5.9,5.9"/>
			<path id="Vector-2_12_" class="st10" d="M705.6,275.7h19.6"/>
			<path id="Vector-3_14_" class="st11" d="M728.7,287.4h-23.3v-23.3h23.3V287.4z"/>
		</g>
	</g>
	<g id="vuesax_linear_arrow-right_11_" transform="translate(-620 -188)">
		<g id="arrow-right_11_">
			<path id="Vector_13_" class="st10" d="M759.4,318.8l5.9,5.9l-5.9,5.9"/>
			<path id="Vector-2_11_" class="st10" d="M728.7,324.7h36.4"/>
			<path id="Vector-3_13_" class="st11" d="M768.7,336.4h-23.3v-23.3h23.3V336.4z"/>
		</g>
	</g>
	<g id="vuesax_linear_arrow-right_10_" transform="translate(-620 -188)">
		<g id="arrow-right_10_">
			<path id="Vector_12_" class="st10" d="M860,372.6l-5.9-5.9l5.9-5.9"/>
			<path id="Vector-2_10_" class="st10" d="M854.3,366.7h36.4"/>
			<path id="Vector-3_12_" class="st11" d="M850.7,355.1H874v23.3h-23.3V355.1z"/>
		</g>
	</g>
	<g id="vuesax_linear_arrow-right_9_" transform="translate(-620 -188)">
		<g id="arrow-right_9_">
			<path id="Vector_11_" class="st10" d="M897.7,281.6l-5.9-5.9l5.9-5.9"/>
			<path id="Vector-2_9_" class="st10" d="M892,275.7h19.6"/>
			<path id="Vector-3_11_" class="st11" d="M888.4,264.1h23.3v23.3h-23.3V264.1z"/>
		</g>
	</g>
</g>
</svg>
