<?xml version="1.0" encoding="utf-8"?>
<!-- Generator: Adobe Illustrator 25.0.0, SVG Export Plug-In . SVG Version: 6.00 Build 0)  -->
<svg version="1.1" xmlns="http://www.w3.org/2000/svg" xmlns:xlink="http://www.w3.org/1999/xlink" x="0px" y="0px"
	 viewBox="0 0 375 245" style="enable-background:new 0 0 375 245;" xml:space="preserve">
<style type="text/css">
	.st0{fill:#F6F6F6;}
	.st1{fill:#FF3146;}
	.st2{fill:#696969;}
	.st3{font-family:'SFProDisplay-Regular';}
	.st4{font-size:20px;}
	.st5{font-size:22px;}
	.st6{fill:#565656;}
	.st7{font-size:30px;}
	.st8{fill:none;stroke:#000000;stroke-width:1.5;stroke-linecap:round;stroke-linejoin:round;}
	.st9{fill:none;}
	.st10{fill:#242424;}
	.st11{fill:none;stroke:#FFFFFF;stroke-width:1.5;stroke-linecap:round;stroke-linejoin:round;}
	.st12{fill:#FFFFFF;}
</style>
<g id="Capa_2">
</g>
<g id="Capa_1">
	<g>
		<path class="st0" d="M259.5,226.6H117.9c-10.6,0-19.2-8.6-19.2-19.2V65.8c0-10.6,8.6-19.2,19.2-19.2h141.6
			c10.6,0,19.2,8.6,19.2,19.2v141.6C278.7,218,270.1,226.6,259.5,226.6z"/>
	</g>
	<path class="st1" d="M253.8,211.6H123.6c-1.1,0-1.9-0.9-1.9-1.9v-0.2c0-1.1,0.9-1.9,1.9-1.9h130.2c1.1,0,1.9,0.9,1.9,1.9v0.2
		C255.7,210.8,254.8,211.6,253.8,211.6z"/>
	<path class="st1" d="M253.3,65.6H123.1c-1.1,0-1.9-0.9-1.9-1.9v-0.2c0-1.1,0.9-1.9,1.9-1.9h130.2c1.1,0,1.9,0.9,1.9,1.9v0.2
		C255.2,64.8,254.4,65.6,253.3,65.6z"/>
	<text transform="matrix(1 0 0 1 115.8491 96.9233)" class="st2 st3 st4">82</text>
	<text transform="matrix(1 0 0 1 159.5991 184.9233)" class="st2 st3 st5">Plomo</text>
	<text transform="matrix(1 0 0 1 201.9819 96.9233)" class="st2 st3 st4">207.21</text>
	<text transform="matrix(1 0 0 1 171.7402 145.0452)" class="st6 st3 st7">Pb</text>
	<g>
		<path d="M74.7,26.4L74.7,26.4c0-3.6,2-5.8,5.1-5.8c2.3,0,4.2,1.4,4.6,3.6l0,0.1H83L82.9,24c-0.4-1.4-1.5-2.2-3.1-2.2
			c-2.2,0-3.7,1.8-3.7,4.5v0c0,2.7,1.5,4.5,3.7,4.5c1.6,0,2.7-0.8,3.2-2.3l0-0.1h1.4l0,0.1c-0.4,2.2-2.2,3.6-4.6,3.6
			C76.7,32.2,74.7,29.9,74.7,26.4z"/>
		<path d="M85.5,29.7L85.5,29.7c0-1.4,1.1-2.3,2.9-2.4l2.3-0.1v-0.7c0-1-0.6-1.6-1.8-1.6c-1,0-1.7,0.5-1.9,1.2l0,0.1h-1.3l0-0.1
			c0.1-1.3,1.3-2.4,3.2-2.4c1.9,0,3.1,1,3.1,2.7V32h-1.4v-1.3h0c-0.5,0.9-1.5,1.5-2.5,1.5C86.6,32.2,85.5,31.2,85.5,29.7z M88.5,31
			c1.3,0,2.3-0.9,2.3-2.1v-0.7l-2.2,0.1c-1.1,0.1-1.7,0.5-1.7,1.3v0C86.9,30.5,87.6,31,88.5,31z"/>
		<path d="M94.3,29.9V25h-1.2v-1.1h1.2v-2.2h1.4v2.2h1.5V25h-1.5v4.9c0,0.9,0.4,1.1,1.1,1.1c0.2,0,0.3,0,0.4,0v1.1
			c-0.2,0-0.5,0.1-0.7,0.1C95,32.2,94.3,31.5,94.3,29.9z"/>
		<path d="M98.1,28L98.1,28c0-2.5,1.4-4.2,3.7-4.2s3.6,1.6,3.6,4.1v0.5h-5.9c0,1.7,1,2.6,2.4,2.6c1,0,1.8-0.5,2-1.2l0-0.1h1.3l0,0.1
			c-0.3,1.3-1.6,2.4-3.4,2.4C99.5,32.2,98.1,30.5,98.1,28z M99.5,27.3h4.4c-0.1-1.6-1-2.3-2.2-2.3C100.6,24.9,99.6,25.7,99.5,27.3z"
			/>
		<path d="M106.6,32.8L106.6,32.8l1.4-0.1l0,0.1c0.3,0.6,1,0.9,2.1,0.9c1.4,0,2.2-0.8,2.2-2v-1h0c-0.5,0.9-1.4,1.5-2.6,1.5
			c-2,0-3.4-1.6-3.4-4.2v0c0-2.5,1.4-4.2,3.5-4.2c1.1,0,2.1,0.6,2.6,1.5h0v-1.4h1.4v7.9c0,1.9-1.4,3.1-3.6,3.1
			C108.1,34.9,106.8,34,106.6,32.8z M112.3,27.9L112.3,27.9c0-1.8-0.9-3-2.3-3c-1.4,0-2.4,1.2-2.4,3v0c0,1.8,0.9,3,2.4,3
			C111.4,30.9,112.3,29.7,112.3,27.9z"/>
		<path d="M115.1,28L115.1,28c0-2.6,1.5-4.2,3.8-4.2s3.8,1.6,3.8,4.2v0c0,2.6-1.5,4.2-3.8,4.2C116.6,32.2,115.1,30.5,115.1,28z
			 M121.2,28L121.2,28c0-1.9-0.9-3-2.4-3c-1.4,0-2.4,1.1-2.4,3v0c0,1.9,0.9,3,2.4,3C120.3,31,121.2,29.9,121.2,28z"/>
		<path d="M124,23.9h1.4v1.4h0c0.3-0.9,1-1.5,1.9-1.5c0.2,0,0.4,0,0.5,0.1v1.3c-0.1,0-0.4-0.1-0.7-0.1c-1.1,0-1.7,0.7-1.7,2v5H124
			V23.9z"/>
		<path d="M129,23.9h1.4V32H129V23.9z M129,23l1.3-2.3h1.4L130,23H129z"/>
		<path d="M131.9,29.7L131.9,29.7c0-1.4,1.1-2.3,2.9-2.4l2.3-0.1v-0.7c0-1-0.6-1.6-1.8-1.6c-1,0-1.7,0.5-1.9,1.2l0,0.1h-1.3l0-0.1
			c0.1-1.3,1.3-2.4,3.2-2.4c1.9,0,3.1,1,3.1,2.7V32h-1.4v-1.3h0c-0.5,0.9-1.5,1.5-2.5,1.5C132.9,32.2,131.9,31.2,131.9,29.7z
			 M134.9,31c1.3,0,2.3-0.9,2.3-2.1v-0.7l-2.2,0.1c-1.1,0.1-1.7,0.5-1.7,1.3v0C133.2,30.5,133.9,31,134.9,31z"/>
	</g>
	<g id="vuesax_linear_arrow-down_4_" transform="translate(-108 -252)">
		<g id="arrow-down_4_">
			<path id="Vector_20_" class="st8" d="M285.3,298.4l-7.1,7.1l-7.1-7.1"/>
			<path class="st8" d="M257.9,279.6h15.6c2.6,0,4.8,2.1,4.8,4.8v20.9"/>
			<path id="Vector-3_20_" class="st9" d="M292.3,309.6h-28.2v-28.2h28.2V309.6z"/>
		</g>
	</g>
	<g>
		<path d="M28,71.9h1.4l6.2,8.9h0v-8.9H37v11.3h-1.4l-6.2-8.9h0v8.9H28V71.9z"/>
		<path d="M38.9,80.3v-5.3h1.4v5c0,1.3,0.6,2,1.9,2c1.3,0,2.1-0.9,2.1-2.3v-4.8h1.4v8.1h-1.4V82h0c-0.4,0.8-1.3,1.3-2.5,1.3
			C39.9,83.3,38.9,82.2,38.9,80.3z M41.6,74.1l1.3-2.3h1.4l-1.7,2.3H41.6z"/>
		<path d="M47.4,75.1h1.4v1.2h0c0.4-0.8,1.2-1.3,2.2-1.3c1.1,0,1.9,0.6,2.3,1.6h0c0.5-1,1.4-1.6,2.5-1.6c1.6,0,2.6,1.1,2.6,2.7v5.6
			h-1.4v-5.3c0-1.1-0.6-1.8-1.7-1.8c-1.1,0-1.8,0.8-1.8,1.9v5.2h-1.4v-5.4c0-1-0.7-1.6-1.7-1.6c-1.1,0-1.9,0.9-1.9,2v5.1h-1.4V75.1z
			"/>
		<path d="M59.8,79.2L59.8,79.2c0-2.5,1.4-4.2,3.7-4.2s3.6,1.6,3.6,4.1v0.5h-5.9c0,1.7,1,2.6,2.4,2.6c1,0,1.8-0.5,2-1.2l0-0.1h1.3
			l0,0.1c-0.3,1.3-1.6,2.4-3.4,2.4C61.2,83.3,59.8,81.7,59.8,79.2z M61.2,78.4h4.4c-0.1-1.6-1-2.3-2.2-2.3
			C62.3,76.1,61.4,76.9,61.2,78.4z"/>
		<path d="M68.4,75.1h1.4v1.4h0c0.3-0.9,1-1.5,1.9-1.5c0.2,0,0.4,0,0.5,0.1v1.3c-0.1,0-0.4-0.1-0.7-0.1c-1.1,0-1.7,0.7-1.7,2v5h-1.4
			V75.1z"/>
		<path d="M72.6,79.1L72.6,79.1c0-2.6,1.5-4.2,3.8-4.2s3.8,1.6,3.8,4.2v0c0,2.6-1.5,4.2-3.8,4.2C74.1,83.3,72.6,81.7,72.6,79.1z
			 M78.7,79.1L78.7,79.1c0-1.9-0.9-3-2.4-3c-1.4,0-2.4,1.1-2.4,3v0c0,1.9,0.9,3,2.4,3C77.8,82.1,78.7,81,78.7,79.1z"/>
		<path d="M27.4,96.9L27.4,96.9c0-1.4,1.1-2.3,2.9-2.4l2.3-0.1v-0.7c0-1-0.6-1.6-1.8-1.6c-1,0-1.7,0.5-1.9,1.2l0,0.1h-1.3l0-0.1
			c0.1-1.3,1.3-2.4,3.2-2.4c1.9,0,3.1,1,3.1,2.7v5.6h-1.4v-1.3h0c-0.5,0.9-1.5,1.5-2.5,1.5C28.5,99.3,27.4,98.4,27.4,96.9z
			 M30.4,98.2c1.3,0,2.3-0.9,2.3-2.1v-0.7l-2.2,0.1c-1.1,0.1-1.7,0.5-1.7,1.3v0C28.8,97.7,29.5,98.2,30.4,98.2z"/>
		<path d="M36.2,97.1v-4.9H35v-1.1h1.2v-2.2h1.4v2.2h1.5v1.1h-1.5v4.9c0,0.9,0.4,1.1,1.1,1.1c0.2,0,0.3,0,0.4,0v1.1
			c-0.2,0-0.5,0.1-0.7,0.1C36.9,99.3,36.2,98.7,36.2,97.1z"/>
		<path d="M40,95.1L40,95.1c0-2.6,1.5-4.2,3.8-4.2s3.8,1.6,3.8,4.2v0c0,2.6-1.5,4.2-3.8,4.2C41.5,99.3,40,97.7,40,95.1z M46.1,95.1
			L46.1,95.1c0-1.9-0.9-3-2.4-3c-1.4,0-2.4,1.1-2.4,3v0c0,1.9,0.9,3,2.4,3C45.2,98.1,46.1,97,46.1,95.1z M43.1,90.1l1.3-2.3h1.4
			l-1.7,2.3H43.1z"/>
		<path d="M48.9,91.1h1.4v1.2h0c0.4-0.8,1.2-1.3,2.2-1.3c1.1,0,1.9,0.6,2.3,1.6h0c0.5-1,1.4-1.6,2.5-1.6c1.6,0,2.6,1.1,2.6,2.7v5.6
			h-1.4v-5.3c0-1.1-0.6-1.8-1.7-1.8c-1.1,0-1.8,0.8-1.8,1.9v5.2h-1.4v-5.4c0-1-0.7-1.6-1.7-1.6c-1.1,0-1.9,0.9-1.9,2v5.1h-1.4V91.1z
			"/>
		<path d="M61.6,88.8c0-0.5,0.4-0.9,0.9-0.9c0.5,0,0.9,0.4,0.9,0.9c0,0.5-0.4,0.9-0.9,0.9C62,89.7,61.6,89.3,61.6,88.8z M61.8,91.1
			h1.4v8.1h-1.4V91.1z"/>
		<path d="M64.6,95.1L64.6,95.1c0-2.6,1.5-4.2,3.8-4.2c2,0,3.2,1.3,3.4,2.7l0,0.1h-1.3l0-0.1c-0.2-0.8-0.9-1.5-2.1-1.5
			c-1.4,0-2.4,1.2-2.4,3v0c0,1.9,1,3,2.4,3c1.1,0,1.8-0.6,2-1.5l0-0.1h1.3l0,0.1c-0.2,1.5-1.6,2.7-3.4,2.7
			C66.1,99.3,64.6,97.7,64.6,95.1z"/>
		<path d="M72.6,95.1L72.6,95.1c0-2.6,1.5-4.2,3.8-4.2s3.8,1.6,3.8,4.2v0c0,2.6-1.5,4.2-3.8,4.2C74.1,99.3,72.6,97.7,72.6,95.1z
			 M78.8,95.1L78.8,95.1c0-1.9-0.9-3-2.4-3c-1.4,0-2.4,1.1-2.4,3v0c0,1.9,0.9,3,2.4,3C77.8,98.1,78.8,97,78.8,95.1z"/>
	</g>
	<g>
		<path d="M27.4,137.3l0-0.1h1.4l0,0.1c0.2,1.1,1.3,1.8,2.9,1.8c1.6,0,2.6-0.7,2.6-1.9v0c0-1-0.6-1.5-2.2-1.9l-1.2-0.3
			c-2.2-0.5-3.2-1.5-3.2-3.1v0c0-1.9,1.6-3.1,4-3.1c2.2,0,3.8,1.3,3.9,3.1l0,0.1h-1.4l0-0.1c-0.2-1.1-1.1-1.8-2.6-1.8
			c-1.5,0-2.5,0.7-2.5,1.8v0c0,0.9,0.7,1.5,2.1,1.8l1.2,0.3c2.3,0.5,3.3,1.4,3.3,3.2v0c0,2-1.6,3.3-4.2,3.3
			C29.2,140.4,27.6,139.2,27.4,137.3z"/>
		<path d="M37.3,132.1h1.4v8.1h-1.4V132.1z M37.3,131.1l1.3-2.3h1.4l-1.7,2.3H37.3z"/>
		<path d="M40.5,132.1h1.4v1.2h0c0.4-0.8,1.2-1.3,2.2-1.3c1.1,0,1.9,0.6,2.3,1.6h0c0.5-1,1.4-1.6,2.5-1.6c1.6,0,2.6,1.1,2.6,2.7v5.6
			h-1.4v-5.3c0-1.1-0.6-1.8-1.7-1.8c-1.1,0-1.8,0.8-1.8,1.9v5.2h-1.4v-5.4c0-1-0.7-1.6-1.7-1.6c-1.1,0-1.9,0.9-1.9,2v5.1h-1.4V132.1
			z"/>
		<path d="M54.9,138.8L54.9,138.8l0,1.4h-1.4v-11.3h1.4v4.5h0c0.5-0.9,1.5-1.5,2.6-1.5c2,0,3.4,1.6,3.4,4.2v0c0,2.6-1.4,4.2-3.5,4.2
			C56.3,140.3,55.4,139.8,54.9,138.8z M59.5,136.1L59.5,136.1c0-1.9-0.9-3-2.3-3c-1.4,0-2.4,1.2-2.4,3v0c0,1.8,1,3,2.4,3
			C58.6,139.1,59.5,138,59.5,136.1z"/>
		<path d="M61.9,136.1L61.9,136.1c0-2.6,1.5-4.2,3.8-4.2s3.8,1.6,3.8,4.2v0c0,2.6-1.5,4.2-3.8,4.2C63.4,140.3,61.9,138.7,61.9,136.1
			z M68,136.1L68,136.1c0-1.9-0.9-3-2.4-3c-1.4,0-2.4,1.1-2.4,3v0c0,1.9,0.9,3,2.4,3C67.1,139.1,68,138,68,136.1z"/>
		<path d="M70.8,128.9h1.4v11.3h-1.4V128.9z"/>
		<path d="M73.6,136.1L73.6,136.1c0-2.6,1.5-4.2,3.8-4.2s3.8,1.6,3.8,4.2v0c0,2.6-1.5,4.2-3.8,4.2C75.1,140.3,73.6,138.7,73.6,136.1
			z M79.7,136.1L79.7,136.1c0-1.9-0.9-3-2.4-3c-1.4,0-2.4,1.1-2.4,3v0c0,1.9,0.9,3,2.4,3C78.8,139.1,79.7,138,79.7,136.1z"/>
	</g>
	<g>
		<path d="M310.2,71.9h1.6l3.9,9.5h0l3.9-9.5h1.6v11.3H320v-8.7h0l-3.6,8.7h-1.2l-3.6-8.7h0v8.7h-1.3V71.9z"/>
		<path d="M322.8,80.9L322.8,80.9c0-1.4,1.1-2.3,2.9-2.4l2.3-0.1v-0.7c0-1-0.6-1.6-1.8-1.6c-1,0-1.7,0.5-1.9,1.2l0,0.1h-1.3l0-0.1
			c0.1-1.3,1.3-2.4,3.2-2.4c1.9,0,3.1,1,3.1,2.7v5.6H328v-1.3h0c-0.5,0.9-1.5,1.5-2.5,1.5C323.8,83.3,322.8,82.4,322.8,80.9z
			 M325.8,82.2c1.3,0,2.3-0.9,2.3-2.1v-0.7l-2.2,0.1c-1.1,0.1-1.7,0.5-1.7,1.3v0C324.1,81.7,324.8,82.2,325.8,82.2z"/>
		<path d="M330.8,80.9L330.8,80.9l1.4-0.1l0,0.1c0.2,0.8,0.8,1.3,1.9,1.3c1.1,0,1.8-0.5,1.8-1.2v0c0-0.6-0.3-0.9-1.2-1.1l-1.3-0.3
			c-1.5-0.4-2.3-1.1-2.3-2.2v0c0-1.4,1.2-2.4,3-2.4c1.8,0,2.9,1,3,2.4l0,0.1h-1.3l0-0.1c-0.1-0.8-0.7-1.3-1.7-1.3
			c-1,0-1.6,0.5-1.6,1.2v0c0,0.6,0.4,0.9,1.3,1.2l1.3,0.3c1.6,0.4,2.2,1,2.2,2.2v0c0,1.4-1.3,2.4-3.2,2.4
			C332.1,83.3,330.9,82.4,330.8,80.9z"/>
		<path d="M338.2,80.9L338.2,80.9c0-1.4,1.1-2.3,2.9-2.4l2.3-0.1v-0.7c0-1-0.6-1.6-1.8-1.6c-1,0-1.7,0.5-1.9,1.2l0,0.1h-1.3l0-0.1
			c0.1-1.3,1.3-2.4,3.2-2.4c1.9,0,3.1,1,3.1,2.7v5.6h-1.4v-1.3h0c-0.5,0.9-1.5,1.5-2.5,1.5C339.3,83.3,338.2,82.4,338.2,80.9z
			 M341.2,82.2c1.3,0,2.3-0.9,2.3-2.1v-0.7l-2.2,0.1c-1.1,0.1-1.7,0.5-1.7,1.3v0C339.6,81.7,340.3,82.2,341.2,82.2z"/>
		<path d="M293,96.9L293,96.9c0-1.4,1.1-2.3,2.9-2.4l2.3-0.1v-0.7c0-1-0.6-1.6-1.8-1.6c-1,0-1.7,0.5-1.9,1.2l0,0.1h-1.3l0-0.1
			c0.1-1.3,1.3-2.4,3.2-2.4c1.9,0,3.1,1,3.1,2.7v5.6h-1.4v-1.3h0c-0.5,0.9-1.5,1.5-2.5,1.5C294,99.3,293,98.4,293,96.9z M296,98.2
			c1.3,0,2.3-0.9,2.3-2.1v-0.7l-2.2,0.1c-1.1,0.1-1.7,0.5-1.7,1.3v0C294.4,97.7,295,98.2,296,98.2z"/>
		<path d="M301.7,97.1v-4.9h-1.2v-1.1h1.2v-2.2h1.4v2.2h1.5v1.1h-1.5v4.9c0,0.9,0.4,1.1,1.1,1.1c0.2,0,0.3,0,0.4,0v1.1
			c-0.2,0-0.5,0.1-0.7,0.1C302.5,99.3,301.7,98.7,301.7,97.1z"/>
		<path d="M305.5,95.1L305.5,95.1c0-2.6,1.5-4.2,3.8-4.2s3.8,1.6,3.8,4.2v0c0,2.6-1.5,4.2-3.8,4.2C307,99.3,305.5,97.7,305.5,95.1z
			 M311.6,95.1L311.6,95.1c0-1.9-0.9-3-2.4-3c-1.4,0-2.4,1.1-2.4,3v0c0,1.9,0.9,3,2.4,3C310.7,98.1,311.6,97,311.6,95.1z
			 M308.6,90.1l1.3-2.3h1.4l-1.7,2.3H308.6z"/>
		<path d="M314.4,91.1h1.4v1.2h0c0.4-0.8,1.2-1.3,2.2-1.3c1.1,0,1.9,0.6,2.3,1.6h0c0.5-1,1.4-1.6,2.5-1.6c1.6,0,2.6,1.1,2.6,2.7v5.6
			h-1.4v-5.3c0-1.1-0.6-1.8-1.7-1.8c-1.1,0-1.8,0.8-1.8,1.9v5.2h-1.4v-5.4c0-1-0.7-1.6-1.7-1.6c-1.1,0-1.9,0.9-1.9,2v5.1h-1.4V91.1z
			"/>
		<path d="M327.2,88.8c0-0.5,0.4-0.9,0.9-0.9c0.5,0,0.9,0.4,0.9,0.9c0,0.5-0.4,0.9-0.9,0.9C327.5,89.7,327.2,89.3,327.2,88.8z
			 M327.3,91.1h1.4v8.1h-1.4V91.1z"/>
		<path d="M330.1,95.1L330.1,95.1c0-2.6,1.5-4.2,3.8-4.2c2,0,3.2,1.3,3.4,2.7l0,0.1H336l0-0.1c-0.2-0.8-0.9-1.5-2.1-1.5
			c-1.4,0-2.4,1.2-2.4,3v0c0,1.9,1,3,2.4,3c1.1,0,1.8-0.6,2-1.5l0-0.1h1.3l0,0.1c-0.2,1.5-1.6,2.7-3.4,2.7
			C331.6,99.3,330.1,97.7,330.1,95.1z"/>
		<path d="M338.2,96.9L338.2,96.9c0-1.4,1.1-2.3,2.9-2.4l2.3-0.1v-0.7c0-1-0.6-1.6-1.8-1.6c-1,0-1.7,0.5-1.9,1.2l0,0.1h-1.3l0-0.1
			c0.1-1.3,1.3-2.4,3.2-2.4c1.9,0,3.1,1,3.1,2.7v5.6h-1.4v-1.3h0c-0.5,0.9-1.5,1.5-2.5,1.5C339.3,99.3,338.2,98.4,338.2,96.9z
			 M341.2,98.2c1.3,0,2.3-0.9,2.3-2.1v-0.7l-2.2,0.1c-1.1,0.1-1.7,0.5-1.7,1.3v0C339.6,97.7,340.3,98.2,341.2,98.2z"/>
	</g>
	<g>
		<path d="M292.7,172.9h1.4l6.2,8.9h0v-8.9h1.4v11.3h-1.4l-6.2-8.9h0v8.9h-1.4V172.9z"/>
		<path d="M303.3,180.1L303.3,180.1c0-2.6,1.5-4.2,3.8-4.2s3.8,1.6,3.8,4.2v0c0,2.6-1.5,4.2-3.8,4.2
			C304.8,184.3,303.3,182.7,303.3,180.1z M309.4,180.1L309.4,180.1c0-1.9-0.9-3-2.4-3c-1.4,0-2.4,1.1-2.4,3v0c0,1.9,0.9,3,2.4,3
			C308.5,183.1,309.4,182,309.4,180.1z"/>
		<path d="M312.1,176.1h1.4v1.2h0c0.4-0.8,1.2-1.3,2.2-1.3c1.1,0,1.9,0.6,2.3,1.6h0c0.5-1,1.4-1.6,2.5-1.6c1.6,0,2.6,1.1,2.6,2.7
			v5.6h-1.4v-5.3c0-1.1-0.6-1.8-1.7-1.8c-1.1,0-1.8,0.8-1.8,1.9v5.2H317v-5.4c0-1-0.7-1.6-1.7-1.6c-1.1,0-1.9,0.9-1.9,2v5.1h-1.4
			V176.1z"/>
		<path d="M326.5,182.8L326.5,182.8l0,1.4h-1.4v-11.3h1.4v4.5h0c0.5-0.9,1.5-1.5,2.6-1.5c2,0,3.4,1.6,3.4,4.2v0
			c0,2.6-1.4,4.2-3.5,4.2C327.9,184.3,327,183.8,326.5,182.8z M331.1,180.1L331.1,180.1c0-1.9-0.9-3-2.3-3c-1.4,0-2.4,1.2-2.4,3v0
			c0,1.8,1,3,2.4,3C330.2,183.1,331.1,182,331.1,180.1z"/>
		<path d="M333.9,176.1h1.4v1.4h0c0.3-0.9,1-1.5,1.9-1.5c0.2,0,0.4,0,0.5,0.1v1.3c-0.1,0-0.4-0.1-0.7-0.1c-1.1,0-1.7,0.7-1.7,2v5
			h-1.4V176.1z"/>
		<path d="M338,180.2L338,180.2c0-2.5,1.4-4.2,3.7-4.2s3.6,1.6,3.6,4.1v0.5h-5.9c0,1.7,1,2.6,2.4,2.6c1,0,1.8-0.5,2-1.2l0-0.1h1.3
			l0,0.1c-0.3,1.3-1.6,2.4-3.4,2.4C339.4,184.3,338,182.7,338,180.2z M339.4,179.4h4.4c-0.1-1.6-1-2.3-2.2-2.3
			C340.5,177.1,339.5,177.9,339.4,179.4z"/>
	</g>
	<g id="vuesax_linear_arrow-right_16_" transform="translate(-620 -188)">
		<g id="arrow-right_16_">
			<path id="Vector_19_" class="st8" d="M719.4,269.8l5.9,5.9l-5.9,5.9"/>
			<path id="Vector-2_16_" class="st8" d="M705.6,275.7h19.6"/>
			<path id="Vector-3_19_" class="st9" d="M728.7,287.4h-23.3v-23.3h23.3V287.4z"/>
		</g>
	</g>
	<g id="vuesax_linear_arrow-right_15_" transform="translate(-620 -188)">
		<g id="arrow-right_15_">
			<path id="Vector_18_" class="st8" d="M759.4,318.8l5.9,5.9l-5.9,5.9"/>
			<path id="Vector-2_15_" class="st8" d="M728.7,324.7h36.4"/>
			<path id="Vector-3_18_" class="st9" d="M768.7,336.4h-23.3v-23.3h23.3V336.4z"/>
		</g>
	</g>
	<g id="vuesax_linear_arrow-right_14_" transform="translate(-620 -188)">
		<g id="arrow-right_14_">
			<path id="Vector_17_" class="st8" d="M860,372.6l-5.9-5.9l5.9-5.9"/>
			<path id="Vector-2_14_" class="st8" d="M854.3,366.7h36.4"/>
			<path id="Vector-3_17_" class="st9" d="M850.7,355.1H874v23.3h-23.3V355.1z"/>
		</g>
	</g>
	<g id="vuesax_linear_arrow-right_13_" transform="translate(-620 -188)">
		<g id="arrow-right_13_">
			<path id="Vector_16_" class="st8" d="M897.7,281.6l-5.9-5.9l5.9-5.9"/>
			<path id="Vector-2_13_" class="st8" d="M892,275.7h19.6"/>
			<path id="Vector-3_16_" class="st9" d="M888.4,264.1h23.3v23.3h-23.3V264.1z"/>
		</g>
	</g>
</g>
</svg>
