<?xml version="1.0" encoding="utf-8"?>
<!-- Generator: Adobe Illustrator 25.0.0, SVG Export Plug-In . SVG Version: 6.00 Build 0)  -->
<svg version="1.1" xmlns="http://www.w3.org/2000/svg" xmlns:xlink="http://www.w3.org/1999/xlink" x="0px" y="0px"
	 viewBox="0 0 375 245" style="enable-background:new 0 0 375 245;" xml:space="preserve">
<style type="text/css">
	.st0{fill:#242424;}
	.st1{fill:#FF3146;}
	.st2{enable-background:new    ;}
	.st3{fill:#969696;}
	.st4{fill:#C6C6C6;}
	.st5{fill:#FFFFFF;}
	.st6{fill:none;stroke:#FFFFFF;stroke-width:1.5;stroke-linecap:round;stroke-linejoin:round;}
	.st7{fill:none;}
</style>
<g id="Capa_2">
</g>
<g id="Capa_1">
	<g id="Capa_2_1_">
	</g>
	<g>
		<path class="st0" d="M259.5,226.6H117.9c-10.6,0-19.2-8.6-19.2-19.2V65.8c0-10.6,8.6-19.2,19.2-19.2h141.6
			c10.6,0,19.2,8.6,19.2,19.2v141.6C278.7,218,270.1,226.6,259.5,226.6z"/>
	</g>
	<path class="st1" d="M253.8,211.6H123.6c-1.1,0-1.9-0.9-1.9-1.9v-0.2c0-1.1,0.9-1.9,1.9-1.9h130.2c1.1,0,1.9,0.9,1.9,1.9v0.2
		C255.7,210.8,254.8,211.6,253.8,211.6z"/>
	<path class="st1" d="M253.3,65.6H123.1c-1.1,0-1.9-0.9-1.9-1.9v-0.2c0-1.1,0.9-1.9,1.9-1.9h130.2c1.1,0,1.9,0.9,1.9,1.9v0.2
		C255.2,64.8,254.4,65.6,253.3,65.6z"/>
	<g class="st2">
		<path class="st3" d="M116.7,93.1L116.7,93.1c0-1.8,1.2-3.2,3-3.6v0c-1.5-0.5-2.5-1.7-2.5-3.1v0c0-2.1,1.9-3.7,4.6-3.7
			s4.6,1.6,4.6,3.7v0c0,1.5-1,2.7-2.5,3.1v0c1.8,0.4,3,1.9,3,3.6v0c0,2.4-2.1,4-5.1,4S116.7,95.5,116.7,93.1z M125.2,93L125.2,93
			c0-1.6-1.4-2.7-3.3-2.7s-3.3,1.1-3.3,2.6v0c0,1.5,1.4,2.6,3.3,2.6S125.2,94.5,125.2,93z M124.7,86.5L124.7,86.5
			c0-1.4-1.2-2.4-2.9-2.4s-2.9,1-2.9,2.3v0c0,1.4,1.2,2.3,2.9,2.3S124.7,87.8,124.7,86.5z"/>
		<path class="st3" d="M129,95.7l5-5.2c1.9-2,2.3-2.7,2.3-3.9v0c0-1.4-1.1-2.5-2.6-2.5c-1.8,0-3.1,1.2-3.1,2.7v0h-1.7v-0.1
			c0-2.4,2.1-4.2,4.7-4.2c2.5,0,4.4,1.7,4.4,3.9v0c0,1.5-0.7,2.7-3.3,5.4l-3.3,3.4v0h6.9v1.6H129V95.7z"/>
	</g>
	<g class="st2">
		<path class="st3" d="M161.1,169.4h5.5c2.9,0,5,2,5,5v0c0,2.9-2.1,5-5,5H163v5.5h-1.9V169.4z M163,171.1v6.5h3.1
			c2.2,0,3.5-1.2,3.5-3.3v0c0-2-1.3-3.3-3.5-3.3H163z"/>
		<path class="st3" d="M173.6,169.4h1.9v15.5h-1.9V169.4z"/>
		<path class="st3" d="M177.5,179.3L177.5,179.3c0-3.6,2.1-5.8,5.2-5.8s5.2,2.2,5.2,5.8v0c0,3.6-2.1,5.8-5.2,5.8
			C179.5,185.1,177.5,182.9,177.5,179.3z M185.9,179.3L185.9,179.3c0-2.6-1.3-4.1-3.3-4.1c-1.9,0-3.3,1.5-3.3,4.1v0
			c0,2.6,1.3,4.1,3.3,4.1C184.6,183.5,185.9,182,185.9,179.3z"/>
		<path class="st3" d="M189.7,173.8h1.9v1.6h0c0.5-1.1,1.6-1.8,3.1-1.8c1.5,0,2.7,0.8,3.1,2.1h0c0.6-1.3,1.9-2.1,3.5-2.1
			c2.2,0,3.6,1.5,3.6,3.7v7.7h-1.9v-7.3c0-1.5-0.8-2.4-2.3-2.4c-1.5,0-2.5,1.1-2.5,2.6v7.1h-1.9v-7.5c0-1.4-0.9-2.2-2.3-2.2
			c-1.5,0-2.6,1.2-2.6,2.7v7h-1.9V173.8z"/>
		<path class="st3" d="M206.8,179.3L206.8,179.3c0-3.6,2.1-5.8,5.2-5.8c3.1,0,5.2,2.2,5.2,5.8v0c0,3.6-2.1,5.8-5.2,5.8
			C208.9,185.1,206.8,182.9,206.8,179.3z M215.2,179.3L215.2,179.3c0-2.6-1.3-4.1-3.3-4.1c-1.9,0-3.3,1.5-3.3,4.1v0
			c0,2.6,1.3,4.1,3.3,4.1C214,183.5,215.2,182,215.2,179.3z"/>
	</g>
	<g class="st2">
		<path class="st3" d="M203.1,95.7l5-5.2c1.9-2,2.3-2.7,2.3-3.9v0c0-1.4-1.1-2.5-2.6-2.5c-1.8,0-3.1,1.2-3.1,2.7v0H203v-0.1
			c0-2.4,2.1-4.2,4.7-4.2c2.5,0,4.4,1.7,4.4,3.9v0c0,1.5-0.7,2.7-3.3,5.4l-3.3,3.4v0h6.9v1.6h-9.3V95.7z"/>
		<path class="st3" d="M214.2,89.9L214.2,89.9c0-4.5,1.9-7.3,5.2-7.3s5.2,2.8,5.2,7.3v0c0,4.5-1.9,7.3-5.2,7.3
			S214.2,94.4,214.2,89.9z M222.8,89.9L222.8,89.9c0-3.6-1.3-5.7-3.4-5.7s-3.4,2.2-3.4,5.7v0c0,3.5,1.2,5.7,3.4,5.7
			S222.8,93.4,222.8,89.9z"/>
		<path class="st3" d="M233.4,84.4L233.4,84.4l-7.6,0v-1.6h9.3v1.6l-6.3,12.5H227L233.4,84.4z"/>
		<path class="st3" d="M235.3,95.9c0-0.6,0.5-1.1,1.1-1.1s1.1,0.5,1.1,1.1s-0.5,1.1-1.1,1.1S235.3,96.6,235.3,95.9z"/>
		<path class="st3" d="M239.7,95.7l5-5.2c1.9-2,2.3-2.7,2.3-3.9v0c0-1.4-1.1-2.5-2.6-2.5c-1.8,0-3.1,1.2-3.1,2.7v0h-1.7v-0.1
			c0-2.4,2.1-4.2,4.7-4.2c2.5,0,4.4,1.7,4.4,3.9v0c0,1.5-0.7,2.7-3.3,5.4l-3.3,3.4v0h6.9v1.6h-9.3V95.7z"/>
		<path class="st3" d="M254.6,84.7L254.6,84.7l-3.8,2.6v-1.8l3.8-2.7h1.7v14.1h-1.7V84.7z"/>
	</g>
	<g class="st2">
		<path class="st4" d="M173.8,123.9h7.5c4,0,6.8,2.7,6.8,6.8v0c0,4-2.8,6.8-6.8,6.8h-4.9v7.5h-2.6V123.9z M176.4,126.3v8.9h4.2
			c3,0,4.8-1.7,4.8-4.4v0c0-2.8-1.7-4.4-4.8-4.4H176.4z"/>
		<path class="st4" d="M193.5,142.5L193.5,142.5l-0.1,2.6h-2.5v-21.1h2.5v8.5h0.1c1-1.8,2.7-2.8,4.9-2.8c3.8,0,6.4,3.1,6.4,7.9v0
			c0,4.8-2.6,7.9-6.5,7.9C196.1,145.3,194.4,144.2,193.5,142.5z M202.2,137.4L202.2,137.4c0-3.5-1.7-5.7-4.4-5.7
			c-2.6,0-4.4,2.2-4.4,5.6v0c0,3.4,1.8,5.7,4.4,5.7C200.5,143.1,202.2,140.9,202.2,137.4z"/>
	</g>
	<g class="st2">
		<path class="st5" d="M74.7,26.4L74.7,26.4c0-3.6,2-5.8,5.1-5.8c2.3,0,4.2,1.4,4.6,3.6l0,0.1H83L82.9,24c-0.4-1.4-1.5-2.2-3.1-2.2
			c-2.2,0-3.7,1.8-3.7,4.5v0c0,2.7,1.5,4.5,3.7,4.5c1.6,0,2.7-0.8,3.2-2.3l0-0.1h1.4l0,0.1c-0.4,2.2-2.2,3.6-4.6,3.6
			C76.7,32.2,74.7,29.9,74.7,26.4z"/>
		<path class="st5" d="M85.5,29.7L85.5,29.7c0-1.4,1.1-2.3,2.9-2.4l2.3-0.1v-0.7c0-1-0.6-1.6-1.8-1.6c-1,0-1.7,0.5-1.9,1.2l0,0.1
			h-1.3l0-0.1c0.1-1.3,1.3-2.4,3.2-2.4c1.9,0,3.1,1,3.1,2.7V32h-1.4v-1.3h0c-0.5,0.9-1.5,1.5-2.5,1.5C86.6,32.2,85.5,31.2,85.5,29.7
			z M88.5,31c1.3,0,2.3-0.9,2.3-2.1v-0.7l-2.2,0.1c-1.1,0.1-1.7,0.5-1.7,1.3v0C86.9,30.5,87.6,31,88.5,31z"/>
		<path class="st5" d="M94.3,29.9V25h-1.2v-1.1h1.2v-2.2h1.4v2.2h1.5V25h-1.5v4.9c0,0.9,0.4,1.1,1.1,1.1c0.2,0,0.3,0,0.4,0v1.1
			c-0.2,0-0.5,0.1-0.7,0.1C95,32.2,94.3,31.5,94.3,29.9z"/>
		<path class="st5" d="M98.1,28L98.1,28c0-2.5,1.4-4.2,3.7-4.2s3.6,1.6,3.6,4.1v0.5h-5.9c0,1.7,1,2.6,2.4,2.6c1,0,1.8-0.5,2-1.2
			l0-0.1h1.3l0,0.1c-0.3,1.3-1.6,2.4-3.4,2.4C99.5,32.2,98.1,30.5,98.1,28z M99.5,27.3h4.4c-0.1-1.6-1-2.3-2.2-2.3
			C100.6,24.9,99.6,25.7,99.5,27.3z"/>
		<path class="st5" d="M106.6,32.8L106.6,32.8l1.4-0.1l0,0.1c0.3,0.6,1,0.9,2.1,0.9c1.4,0,2.2-0.8,2.2-2v-1h0
			c-0.5,0.9-1.4,1.5-2.6,1.5c-2,0-3.4-1.6-3.4-4.2v0c0-2.5,1.4-4.2,3.5-4.2c1.1,0,2.1,0.6,2.6,1.5h0v-1.4h1.4v7.9
			c0,1.9-1.4,3.1-3.6,3.1C108.1,34.9,106.8,34,106.6,32.8z M112.3,27.9L112.3,27.9c0-1.8-0.9-3-2.3-3c-1.4,0-2.4,1.2-2.4,3v0
			c0,1.8,0.9,3,2.4,3C111.4,30.9,112.3,29.7,112.3,27.9z"/>
		<path class="st5" d="M115.1,28L115.1,28c0-2.6,1.5-4.2,3.8-4.2s3.8,1.6,3.8,4.2v0c0,2.6-1.5,4.2-3.8,4.2
			C116.6,32.2,115.1,30.5,115.1,28z M121.2,28L121.2,28c0-1.9-0.9-3-2.4-3c-1.4,0-2.4,1.1-2.4,3v0c0,1.9,0.9,3,2.4,3
			C120.3,31,121.2,29.9,121.2,28z"/>
		<path class="st5" d="M124,23.9h1.4v1.4h0c0.3-0.9,1-1.5,1.9-1.5c0.2,0,0.4,0,0.5,0.1v1.3c-0.1,0-0.4-0.1-0.7-0.1
			c-1.1,0-1.7,0.7-1.7,2v5H124V23.9z"/>
		<path class="st5" d="M129,23.9h1.4V32H129V23.9z M129,23l1.3-2.3h1.4L130,23H129z"/>
		<path class="st5" d="M131.9,29.7L131.9,29.7c0-1.4,1.1-2.3,2.9-2.4l2.3-0.1v-0.7c0-1-0.6-1.6-1.8-1.6c-1,0-1.7,0.5-1.9,1.2l0,0.1
			h-1.3l0-0.1c0.1-1.3,1.3-2.4,3.2-2.4c1.9,0,3.1,1,3.1,2.7V32h-1.4v-1.3h0c-0.5,0.9-1.5,1.5-2.5,1.5
			C132.9,32.2,131.9,31.2,131.9,29.7z M134.9,31c1.3,0,2.3-0.9,2.3-2.1v-0.7l-2.2,0.1c-1.1,0.1-1.7,0.5-1.7,1.3v0
			C133.2,30.5,133.9,31,134.9,31z"/>
	</g>
	<g id="vuesax_linear_arrow-down_2_" transform="translate(-108 -252)">
		<g id="arrow-down_2_">
			<path id="Vector_10_" class="st6" d="M285.3,298.4l-7.1,7.1l-7.1-7.1"/>
			<path class="st6" d="M257.9,279.6h15.6c2.6,0,4.8,2.1,4.8,4.8v20.9"/>
			<path id="Vector-3_10_" class="st7" d="M292.3,309.6h-28.2v-28.2h28.2V309.6z"/>
		</g>
	</g>
	<g>
		<path class="st5" d="M28,71.9h1.4l6.2,8.9l0,0v-8.9H37v11.3h-1.4l-6.2-8.9l0,0v8.9H28V71.9z"/>
		<path class="st5" d="M38.9,80.3V75h1.4v5c0,1.3,0.6,2,1.9,2c1.3,0,2.1-0.9,2.1-2.3v-4.8h1.4V83h-1.4v-1l0,0
			c-0.4,0.8-1.3,1.3-2.5,1.3C39.9,83.3,38.9,82.2,38.9,80.3z M41.6,74.1l1.3-2.3h1.4l-1.7,2.3H41.6z"/>
		<path class="st5" d="M47.4,75.1h1.4v1.2l0,0C49.2,75.5,50,75,51,75c1.1,0,1.9,0.6,2.3,1.6l0,0c0.5-1,1.4-1.6,2.5-1.6
			c1.6,0,2.6,1.1,2.6,2.7v5.6H57V78c0-1.1-0.6-1.8-1.7-1.8c-1.1,0-1.8,0.8-1.8,1.9v5.2h-1.4v-5.4c0-1-0.7-1.6-1.7-1.6
			c-1.1,0-1.9,0.9-1.9,2v5.1h-1.4v-8.3H47.4z"/>
		<path class="st5" d="M59.8,79.2L59.8,79.2c0-2.5,1.4-4.2,3.7-4.2c2.3,0,3.6,1.6,3.6,4.1v0.5h-5.9c0,1.7,1,2.6,2.4,2.6
			c1,0,1.8-0.5,2-1.2v-0.1h1.3V81c-0.3,1.3-1.6,2.4-3.4,2.4C61.2,83.3,59.8,81.7,59.8,79.2z M61.2,78.4h4.4c-0.1-1.6-1-2.3-2.2-2.3
			C62.3,76.1,61.4,76.9,61.2,78.4z"/>
		<path class="st5" d="M68.4,75.1h1.4v1.4l0,0c0.3-0.9,1-1.5,1.9-1.5c0.2,0,0.4,0,0.5,0.1v1.3c-0.1,0-0.4-0.1-0.7-0.1
			c-1.1,0-1.7,0.7-1.7,2v5h-1.4C68.4,83.3,68.4,75.1,68.4,75.1z"/>
		<path class="st5" d="M72.6,79.1L72.6,79.1c0-2.6,1.5-4.2,3.8-4.2s3.8,1.6,3.8,4.2l0,0c0,2.6-1.5,4.2-3.8,4.2
			C74.1,83.3,72.6,81.7,72.6,79.1z M78.7,79.1L78.7,79.1c0-1.9-0.9-3-2.4-3c-1.4,0-2.4,1.1-2.4,3l0,0c0,1.9,0.9,3,2.4,3
			C77.8,82.1,78.7,81,78.7,79.1z"/>
		<path class="st5" d="M27.4,96.9L27.4,96.9c0-1.4,1.1-2.3,2.9-2.4l2.3-0.1v-0.7c0-1-0.6-1.6-1.8-1.6c-1,0-1.7,0.5-1.9,1.2v0.1h-1.3
			v-0.1c0.1-1.3,1.3-2.4,3.2-2.4c1.9,0,3.1,1,3.1,2.7v5.6h-1.4v-1.3l0,0C32,98.8,31,99.4,30,99.4C28.5,99.3,27.4,98.4,27.4,96.9z
			 M30.4,98.2c1.3,0,2.3-0.9,2.3-2.1v-0.7l-2.2,0.1c-1.1,0.1-1.7,0.5-1.7,1.3l0,0C28.8,97.7,29.5,98.2,30.4,98.2z"/>
		<path class="st5" d="M36.2,97.1v-4.9H35v-1.1h1.2v-2.2h1.4v2.2h1.5v1.1h-1.5v4.9c0,0.9,0.4,1.1,1.1,1.1c0.2,0,0.3,0,0.4,0v1.1
			c-0.2,0-0.5,0.1-0.7,0.1C36.9,99.3,36.2,98.7,36.2,97.1z"/>
		<path class="st5" d="M40,95.1L40,95.1c0-2.6,1.5-4.2,3.8-4.2s3.8,1.6,3.8,4.2l0,0c0,2.6-1.5,4.2-3.8,4.2
			C41.5,99.3,40,97.7,40,95.1z M46.1,95.1L46.1,95.1c0-1.9-0.9-3-2.4-3c-1.4,0-2.4,1.1-2.4,3l0,0c0,1.9,0.9,3,2.4,3
			C45.2,98.1,46.1,97,46.1,95.1z M43.1,90.1l1.3-2.3h1.4l-1.7,2.3H43.1z"/>
		<path class="st5" d="M48.9,91.1h1.4v1.2l0,0c0.4-0.8,1.2-1.3,2.2-1.3c1.1,0,1.9,0.6,2.3,1.6l0,0c0.5-1,1.4-1.6,2.5-1.6
			c1.6,0,2.6,1.1,2.6,2.7v5.6h-1.4V94c0-1.1-0.6-1.8-1.7-1.8c-1.1,0-1.8,0.8-1.8,1.9v5.2h-1.4v-5.4c0-1-0.7-1.6-1.7-1.6
			c-1.1,0-1.9,0.9-1.9,2v5.1h-1.4v-8.3H48.9z"/>
		<path class="st5" d="M61.6,88.8c0-0.5,0.4-0.9,0.9-0.9s0.9,0.4,0.9,0.9s-0.4,0.9-0.9,0.9C62,89.7,61.6,89.3,61.6,88.8z M61.8,91.1
			h1.4v8.1h-1.4V91.1z"/>
		<path class="st5" d="M64.6,95.1L64.6,95.1c0-2.6,1.5-4.2,3.8-4.2c2,0,3.2,1.3,3.4,2.7v0.1h-1.3v-0.1c-0.2-0.8-0.9-1.5-2.1-1.5
			c-1.4,0-2.4,1.2-2.4,3l0,0c0,1.9,1,3,2.4,3c1.1,0,1.8-0.6,2-1.5v-0.1h1.3v0.1c-0.2,1.5-1.6,2.7-3.4,2.7
			C66.1,99.3,64.6,97.7,64.6,95.1z"/>
		<path class="st5" d="M72.6,95.1L72.6,95.1c0-2.6,1.5-4.2,3.8-4.2s3.8,1.6,3.8,4.2l0,0c0,2.6-1.5,4.2-3.8,4.2
			C74.1,99.3,72.6,97.7,72.6,95.1z M78.8,95.1L78.8,95.1c0-1.9-0.9-3-2.4-3c-1.4,0-2.4,1.1-2.4,3l0,0c0,1.9,0.9,3,2.4,3
			C77.8,98.1,78.8,97,78.8,95.1z"/>
	</g>
	<rect x="26.9" y="128.9" class="st7" width="56.8" height="15.7"/>
	<g class="st2">
		<path class="st5" d="M27.4,137.3l0-0.1h1.4l0,0.1c0.2,1.1,1.3,1.8,2.9,1.8c1.6,0,2.6-0.7,2.6-1.9v0c0-1-0.6-1.5-2.2-1.9l-1.2-0.3
			c-2.2-0.5-3.2-1.5-3.2-3.1v0c0-1.9,1.6-3.1,4-3.1c2.2,0,3.8,1.3,3.9,3.1l0,0.1h-1.4l0-0.1c-0.2-1.1-1.1-1.8-2.6-1.8
			c-1.5,0-2.5,0.7-2.5,1.8v0c0,0.9,0.7,1.5,2.1,1.8l1.2,0.3c2.3,0.5,3.3,1.4,3.3,3.2v0c0,2-1.6,3.3-4.2,3.3
			C29.2,140.4,27.6,139.2,27.4,137.3z"/>
		<path class="st5" d="M37.3,132.1h1.4v8.1h-1.4V132.1z M37.3,131.1l1.3-2.3h1.4l-1.7,2.3H37.3z"/>
		<path class="st5" d="M40.5,132.1h1.4v1.2h0c0.4-0.8,1.2-1.3,2.2-1.3c1.1,0,1.9,0.6,2.3,1.6h0c0.5-1,1.4-1.6,2.5-1.6
			c1.6,0,2.6,1.1,2.6,2.7v5.6h-1.4v-5.3c0-1.1-0.6-1.8-1.7-1.8c-1.1,0-1.8,0.8-1.8,1.9v5.2h-1.4v-5.4c0-1-0.7-1.6-1.7-1.6
			c-1.1,0-1.9,0.9-1.9,2v5.1h-1.4V132.1z"/>
		<path class="st5" d="M54.9,138.8L54.9,138.8l0,1.4h-1.4v-11.3h1.4v4.5h0c0.5-0.9,1.5-1.5,2.6-1.5c2,0,3.4,1.6,3.4,4.2v0
			c0,2.6-1.4,4.2-3.5,4.2C56.3,140.3,55.4,139.8,54.9,138.8z M59.5,136.1L59.5,136.1c0-1.9-0.9-3-2.3-3c-1.4,0-2.4,1.2-2.4,3v0
			c0,1.8,1,3,2.4,3C58.6,139.1,59.5,138,59.5,136.1z"/>
		<path class="st5" d="M61.9,136.1L61.9,136.1c0-2.6,1.5-4.2,3.8-4.2s3.8,1.6,3.8,4.2v0c0,2.6-1.5,4.2-3.8,4.2
			C63.4,140.3,61.9,138.7,61.9,136.1z M68,136.1L68,136.1c0-1.9-0.9-3-2.4-3c-1.4,0-2.4,1.1-2.4,3v0c0,1.9,0.9,3,2.4,3
			C67.1,139.1,68,138,68,136.1z"/>
		<path class="st5" d="M70.8,128.9h1.4v11.3h-1.4V128.9z"/>
		<path class="st5" d="M73.6,136.1L73.6,136.1c0-2.6,1.5-4.2,3.8-4.2s3.8,1.6,3.8,4.2v0c0,2.6-1.5,4.2-3.8,4.2
			C75.1,140.3,73.6,138.7,73.6,136.1z M79.7,136.1L79.7,136.1c0-1.9-0.9-3-2.4-3c-1.4,0-2.4,1.1-2.4,3v0c0,1.9,0.9,3,2.4,3
			C78.8,139.1,79.7,138,79.7,136.1z"/>
	</g>
	<rect x="291.9" y="71.9" class="st7" width="53.8" height="30.7"/>
	<g>
		<g class="st2">
			<path class="st5" d="M310,71.9h1.6l3.9,9.5h0l3.9-9.5h1.6v11.3h-1.3v-8.7h0l-3.6,8.7H315l-3.6-8.7h0v8.7H310V71.9z"/>
			<path class="st5" d="M322.5,80.9L322.5,80.9c0-1.4,1.1-2.3,2.9-2.4l2.3-0.1v-0.7c0-1-0.6-1.6-1.8-1.6c-1,0-1.7,0.5-1.9,1.2l0,0.1
				h-1.3l0-0.1c0.1-1.3,1.3-2.4,3.2-2.4c1.9,0,3.1,1,3.1,2.7v5.6h-1.4v-1.3h0c-0.5,0.9-1.5,1.5-2.5,1.5
				C323.6,83.3,322.5,82.4,322.5,80.9z M325.5,82.2c1.3,0,2.3-0.9,2.3-2.1v-0.7l-2.2,0.1c-1.1,0.1-1.7,0.5-1.7,1.3v0
				C323.9,81.7,324.6,82.2,325.5,82.2z"/>
			<path class="st5" d="M330.5,80.9L330.5,80.9l1.4-0.1l0,0.1c0.2,0.8,0.8,1.3,1.9,1.3c1.1,0,1.8-0.5,1.8-1.2v0
				c0-0.6-0.3-0.9-1.2-1.1l-1.3-0.3c-1.5-0.4-2.3-1.1-2.3-2.2v0c0-1.4,1.2-2.4,3-2.4c1.8,0,2.9,1,3,2.4l0,0.1h-1.3l0-0.1
				c-0.1-0.8-0.7-1.3-1.7-1.3c-1,0-1.6,0.5-1.6,1.2v0c0,0.6,0.4,0.9,1.3,1.2l1.3,0.3c1.6,0.4,2.2,1,2.2,2.2v0c0,1.4-1.3,2.4-3.2,2.4
				C331.9,83.3,330.7,82.4,330.5,80.9z"/>
			<path class="st5" d="M338,80.9L338,80.9c0-1.4,1.1-2.3,2.9-2.4l2.3-0.1v-0.7c0-1-0.6-1.6-1.8-1.6c-1,0-1.7,0.5-1.9,1.2l0,0.1
				h-1.3l0-0.1c0.1-1.3,1.3-2.4,3.2-2.4c1.9,0,3.1,1,3.1,2.7v5.6h-1.4v-1.3h0c-0.5,0.9-1.5,1.5-2.5,1.5
				C339.1,83.3,338,82.4,338,80.9z M341,82.2c1.3,0,2.3-0.9,2.3-2.1v-0.7l-2.2,0.1c-1.1,0.1-1.7,0.5-1.7,1.3v0
				C339.4,81.7,340,82.2,341,82.2z"/>
		</g>
		<g class="st2">
			<path class="st5" d="M292.8,96.9L292.8,96.9c0-1.4,1.1-2.3,2.9-2.4l2.3-0.1v-0.7c0-1-0.6-1.6-1.8-1.6c-1,0-1.7,0.5-1.9,1.2l0,0.1
				h-1.3l0-0.1c0.1-1.3,1.3-2.4,3.2-2.4c1.9,0,3.1,1,3.1,2.7v5.6H298v-1.3h0c-0.5,0.9-1.5,1.5-2.5,1.5
				C293.8,99.3,292.8,98.4,292.8,96.9z M295.8,98.2c1.3,0,2.3-0.9,2.3-2.1v-0.7l-2.2,0.1c-1.1,0.1-1.7,0.5-1.7,1.3v0
				C294.2,97.7,294.8,98.2,295.8,98.2z"/>
			<path class="st5" d="M301.5,97.1v-4.9h-1.2v-1.1h1.2v-2.2h1.4v2.2h1.5v1.1h-1.5v4.9c0,0.9,0.4,1.1,1.1,1.1c0.2,0,0.3,0,0.4,0v1.1
				c-0.2,0-0.5,0.1-0.7,0.1C302.3,99.3,301.5,98.7,301.5,97.1z"/>
			<path class="st5" d="M305.3,95.1L305.3,95.1c0-2.6,1.5-4.2,3.8-4.2s3.8,1.6,3.8,4.2v0c0,2.6-1.5,4.2-3.8,4.2
				C306.8,99.3,305.3,97.7,305.3,95.1z M311.4,95.1L311.4,95.1c0-1.9-0.9-3-2.4-3c-1.4,0-2.4,1.1-2.4,3v0c0,1.9,0.9,3,2.4,3
				C310.5,98.1,311.4,97,311.4,95.1z M308.4,90.1l1.3-2.3h1.4l-1.7,2.3H308.4z"/>
			<path class="st5" d="M314.2,91.1h1.4v1.2h0c0.4-0.8,1.2-1.3,2.2-1.3c1.1,0,1.9,0.6,2.3,1.6h0c0.5-1,1.4-1.6,2.5-1.6
				c1.6,0,2.6,1.1,2.6,2.7v5.6H324v-5.3c0-1.1-0.6-1.8-1.7-1.8c-1.1,0-1.8,0.8-1.8,1.9v5.2h-1.4v-5.4c0-1-0.7-1.6-1.7-1.6
				c-1.1,0-1.9,0.9-1.9,2v5.1h-1.4V91.1z"/>
			<path class="st5" d="M327,88.8c0-0.5,0.4-0.9,0.9-0.9c0.5,0,0.9,0.4,0.9,0.9c0,0.5-0.4,0.9-0.9,0.9C327.3,89.7,327,89.3,327,88.8
				z M327.1,91.1h1.4v8.1h-1.4V91.1z"/>
			<path class="st5" d="M329.9,95.1L329.9,95.1c0-2.6,1.5-4.2,3.8-4.2c2,0,3.2,1.3,3.4,2.7l0,0.1h-1.3l0-0.1
				c-0.2-0.8-0.9-1.5-2.1-1.5c-1.4,0-2.4,1.2-2.4,3v0c0,1.9,1,3,2.4,3c1.1,0,1.8-0.6,2-1.5l0-0.1h1.3l0,0.1
				c-0.2,1.5-1.6,2.7-3.4,2.7C331.4,99.3,329.9,97.7,329.9,95.1z"/>
			<path class="st5" d="M338,96.9L338,96.9c0-1.4,1.1-2.3,2.9-2.4l2.3-0.1v-0.7c0-1-0.6-1.6-1.8-1.6c-1,0-1.7,0.5-1.9,1.2l0,0.1
				h-1.3l0-0.1c0.1-1.3,1.3-2.4,3.2-2.4c1.9,0,3.1,1,3.1,2.7v5.6h-1.4v-1.3h0c-0.5,0.9-1.5,1.5-2.5,1.5
				C339.1,99.3,338,98.4,338,96.9z M341,98.2c1.3,0,2.3-0.9,2.3-2.1v-0.7l-2.2,0.1c-1.1,0.1-1.7,0.5-1.7,1.3v0
				C339.4,97.7,340.1,98.2,341,98.2z"/>
		</g>
	</g>
	<rect x="289.5" y="172.9" class="st7" width="56.2" height="11.7"/>
	<g class="st2">
		<path class="st5" d="M292.3,172.9h1.4l6.2,8.9h0v-8.9h1.4v11.3h-1.4l-6.2-8.9h0v8.9h-1.4V172.9z"/>
		<path class="st5" d="M302.9,180.1L302.9,180.1c0-2.6,1.5-4.2,3.8-4.2s3.8,1.6,3.8,4.2v0c0,2.6-1.5,4.2-3.8,4.2
			C304.4,184.3,302.9,182.7,302.9,180.1z M309,180.1L309,180.1c0-1.9-0.9-3-2.4-3c-1.4,0-2.4,1.1-2.4,3v0c0,1.9,0.9,3,2.4,3
			C308.1,183.1,309,182,309,180.1z"/>
		<path class="st5" d="M311.8,176.1h1.4v1.2h0c0.4-0.8,1.2-1.3,2.2-1.3c1.1,0,1.9,0.6,2.3,1.6h0c0.5-1,1.4-1.6,2.5-1.6
			c1.6,0,2.6,1.1,2.6,2.7v5.6h-1.4v-5.3c0-1.1-0.6-1.8-1.7-1.8c-1.1,0-1.8,0.8-1.8,1.9v5.2h-1.4v-5.4c0-1-0.7-1.6-1.7-1.6
			c-1.1,0-1.9,0.9-1.9,2v5.1h-1.4V176.1z"/>
		<path class="st5" d="M326.1,182.8L326.1,182.8l0,1.4h-1.4v-11.3h1.4v4.5h0c0.5-0.9,1.5-1.5,2.6-1.5c2,0,3.4,1.6,3.4,4.2v0
			c0,2.6-1.4,4.2-3.5,4.2C327.5,184.3,326.6,183.8,326.1,182.8z M330.7,180.1L330.7,180.1c0-1.9-0.9-3-2.3-3c-1.4,0-2.4,1.2-2.4,3v0
			c0,1.8,1,3,2.4,3C329.8,183.1,330.7,182,330.7,180.1z"/>
		<path class="st5" d="M333.5,176.1h1.4v1.4h0c0.3-0.9,1-1.5,1.9-1.5c0.2,0,0.4,0,0.5,0.1v1.3c-0.1,0-0.4-0.1-0.7-0.1
			c-1.1,0-1.7,0.7-1.7,2v5h-1.4V176.1z"/>
		<path class="st5" d="M337.6,180.2L337.6,180.2c0-2.5,1.4-4.2,3.7-4.2s3.6,1.6,3.6,4.1v0.5H339c0,1.7,1,2.6,2.4,2.6
			c1,0,1.8-0.5,2-1.2l0-0.1h1.3l0,0.1c-0.3,1.3-1.6,2.4-3.4,2.4C339,184.3,337.6,182.7,337.6,180.2z M339,179.4h4.4
			c-0.1-1.6-1-2.3-2.2-2.3C340.1,177.1,339.2,177.9,339,179.4z"/>
	</g>
	<g id="vuesax_linear_arrow-right_8_" transform="translate(-620 -188)">
		<g id="arrow-right_8_">
			<path id="Vector_4_" class="st6" d="M719.4,269.8l5.9,5.9l-5.9,5.9"/>
			<path id="Vector-2_8_" class="st6" d="M705.6,275.7h19.6"/>
			<path id="Vector-3_5_" class="st7" d="M728.7,287.4h-23.3v-23.3h23.3V287.4z"/>
		</g>
	</g>
	<g id="vuesax_linear_arrow-right_3_" transform="translate(-620 -188)">
		<g id="arrow-right_3_">
			<path id="Vector_3_" class="st6" d="M759.4,318.8l5.9,5.9l-5.9,5.9"/>
			<path id="Vector-2_3_" class="st6" d="M728.7,324.7h36.4"/>
			<path id="Vector-3_4_" class="st7" d="M768.7,336.4h-23.3v-23.3h23.3V336.4z"/>
		</g>
	</g>
	<g id="vuesax_linear_arrow-right_2_" transform="translate(-620 -188)">
		<g id="arrow-right_2_">
			<path id="Vector_2_" class="st6" d="M860,372.6l-5.9-5.9l5.9-5.9"/>
			<path id="Vector-2_2_" class="st6" d="M854.3,366.7h36.4"/>
			<path id="Vector-3_3_" class="st7" d="M850.7,355.1H874v23.3h-23.3V355.1z"/>
		</g>
	</g>
	<g id="vuesax_linear_arrow-right_1_" transform="translate(-620 -188)">
		<g id="arrow-right_1_">
			<path id="Vector_1_" class="st6" d="M897.7,281.6l-5.9-5.9l5.9-5.9"/>
			<path id="Vector-2_1_" class="st6" d="M892,275.7h19.6"/>
			<path id="Vector-3_1_" class="st7" d="M888.4,264.1h23.3v23.3h-23.3V264.1z"/>
		</g>
	</g>
</g>
</svg>
