<?xml version="1.0" encoding="utf-8"?>
<!-- Generator: Adobe Illustrator 25.0.0, SVG Export Plug-In . SVG Version: 6.00 Build 0)  -->
<svg version="1.1" xmlns="http://www.w3.org/2000/svg" xmlns:xlink="http://www.w3.org/1999/xlink" x="0px" y="0px"
	 viewBox="0 0 512 512" style="enable-background:new 0 0 512 512;" xml:space="preserve">
<style type="text/css">
	.st0{fill:#FF4F4F;}
	.st1{fill:#F1EED9;}
	.st2{fill:#C69C6D;}
	.st3{opacity:0.4;}
	.st4{fill:#FFFFFF;}
	.st5{opacity:5.000000e-02;}
	.st6{opacity:0.1;}
	.st7{fill:#469BEF;}
	.st8{fill:#FAD63F;}
	.st9{fill:#37C91E;}
	.st10{fill:#F08C27;}
</style>
<g id="Capa_2">
</g>
<g id="Capa_1">
	<g>
		<circle class="st0" cx="256" cy="256" r="50.1"/>
	</g>
	<path class="st1" d="M312.4,131.3c-14.8-34.2-34.9-53-56.4-53s-41.6,18.8-56.4,53c-14.5,33.4-22.5,77.7-22.5,124.7
		s8,91.4,22.5,124.7c14.8,34.2,34.9,53,56.4,53s41.6-18.8,56.4-53c14.5-33.4,22.5-77.7,22.5-124.7S326.9,164.6,312.4,131.3z
		 M306.9,378.3c-13.8,31.8-31.9,49.4-50.9,49.4s-37.1-17.5-50.9-49.4c-14.2-32.6-22-76.1-22-122.3s7.8-89.7,22-122.3
		c13.8-31.8,31.9-49.4,50.9-49.4s37.1,17.5,50.9,49.4c14.2,32.6,22,76.1,22,122.3S321.1,345.7,306.9,378.3z"/>
	<path class="st1" d="M408.3,141.6c-15.4-16.4-45.8-19.6-85.6-9.1c-21.3,5.6-43.9,14.8-66.7,26.9c-19,10.1-38.1,22.2-56.5,36
		c-61,45.6-102.6,100.9-106.1,140.9c-1.2,14,2.2,25.5,10.3,34c9.5,10,24.6,15.2,44.1,15.2c12.2,0,26.2-2,41.6-6.1
		c21.3-5.6,43.9-14.8,66.7-26.9c19-10.1,38.1-22.2,56.5-36c61-45.6,102.6-100.9,106.1-140.9C419.8,161.6,416.4,150.2,408.3,141.6z
		 M412.7,175.1c-3.3,38.3-44,92-103.7,136.6c-17.2,12.9-35.1,24.3-52.9,34c-23.3,12.6-46.5,22.2-68.2,27.9
		c-37.6,9.9-65.9,7.3-79.7-7.4c-6.8-7.2-9.7-17.1-8.7-29.4c3.3-38.3,44.1-92,103.7-136.6c17.2-12.9,35.1-24.3,52.9-34
		c23.3-12.6,46.5-22.1,68.2-27.9c15-4,28.5-5.9,40.2-5.9c17.7,0,31.2,4.5,39.5,13.3C410.8,153,413.7,162.9,412.7,175.1z"/>
	<path class="st1" d="M418.6,336.3c-3.5-40-45.1-95.3-106.1-140.9c-18.4-13.8-37.5-25.9-56.5-36c-22.8-12.1-45.4-21.3-66.7-26.9
		c-39.8-10.5-70.2-7.3-85.6,9.1c-8,8.5-11.5,20-10.3,34c3.5,40,45.1,95.3,106.1,140.9c18.4,13.8,37.5,25.9,56.5,36
		c22.8,12.1,45.4,21.3,66.7,26.9c15.4,4.1,29.3,6.1,41.6,6.1c19.5,0,34.6-5.1,44.1-15.2C416.4,361.8,419.8,350.4,418.6,336.3z
		 M404,366.2c-13.8,14.7-42.1,17.3-79.7,7.4c-21.7-5.7-45-15.3-68.2-27.9c-17.8-9.7-35.7-21.1-52.9-34
		c-59.7-44.6-100.4-98.2-103.7-136.6c-1.1-12.2,1.9-22.1,8.7-29.4c8.3-8.8,21.9-13.3,39.5-13.3c11.7,0,25.2,2,40.2,5.9
		c21.7,5.7,45,15.3,68.2,27.9c17.8,9.7,35.7,21.1,52.9,34c59.7,44.6,100.4,98.2,103.7,136.6C413.7,349.1,410.8,359,404,366.2z"/>
	<path class="st2" d="M267,115.5c0,6.3-5.2,11.5-11.5,11.5c-0.2,0-0.3,0-0.5,0c-6.1-0.3-11-5.3-11-11.5s4.9-11.2,11-11.5
		c0.2,0,0.3,0,0.5,0C261.8,104,267,109.1,267,115.5z"/>
	<circle class="st2" cx="365.5" cy="333.5" r="11.5"/>
	<circle class="st2" cx="198.5" cy="372.5" r="11.5"/>
	<g class="st3">
		<path class="st4" d="M254.7,225.3L254.7,225.3c0,3.3-2.2,6.1-5.4,6.8c-9.2,2.1-16.4,9.3-18.5,18.5c-0.7,3.2-3.6,5.4-6.8,5.4h0
			c-4.5,0-7.8-4.2-6.8-8.5c3.3-14.4,14.6-25.7,29-29C250.6,217.5,254.7,220.8,254.7,225.3z"/>
	</g>
	<g class="st3">
		<path class="st4" d="M255,108.8L255,108.8c0,0.7-0.5,1.3-1.2,1.4c-1.9,0.4-3.5,2-3.9,3.9c-0.2,0.7-0.8,1.2-1.4,1.2l0,0
			c-1,0-1.7-0.9-1.4-1.8c0.7-3,3.1-5.5,6.1-6.1C254.1,107.1,255,107.8,255,108.8z"/>
	</g>
	<g class="st3">
		<path class="st4" d="M198,365.8L198,365.8c0,0.7-0.5,1.3-1.2,1.4c-1.9,0.4-3.5,2-3.9,3.9c-0.2,0.7-0.8,1.2-1.4,1.2l0,0
			c-1,0-1.7-0.9-1.4-1.8c0.7-3,3.1-5.5,6.1-6.1C197.1,364.1,198,364.8,198,365.8z"/>
	</g>
	<g class="st3">
		<path class="st4" d="M365,326.8L365,326.8c0,0.7-0.5,1.3-1.2,1.4c-1.9,0.4-3.5,2-3.9,3.9c-0.2,0.7-0.8,1.2-1.4,1.2l0,0
			c-1,0-1.7-0.9-1.4-1.8c0.7-3,3.1-5.5,6.1-6.1C364.1,325.1,365,325.8,365,326.8z"/>
	</g>
	<path class="st5" d="M267,115.5c0,6.3-5.2,11.5-11.5,11.5c-0.2,0-0.3,0-0.5,0v-23c0.2,0,0.3,0,0.5,0C261.8,104,267,109.1,267,115.5
		z"/>
	<path class="st5" d="M210,372.5c0,6.3-5.2,11.5-11.5,11.5c-0.2,0-0.3,0-0.5,0v-23c0.2,0,0.3,0,0.5,0C204.8,361,210,366.1,210,372.5
		z"/>
	<path class="st5" d="M377,333.5c0,6.3-5.2,11.5-11.5,11.5c-0.2,0-0.3,0-0.5,0v-23c0.2,0,0.3,0,0.5,0C371.8,322,377,327.1,377,333.5
		z"/>
	<circle class="st2" cx="136.5" cy="254.5" r="11.5"/>
	<g class="st3">
		<path class="st4" d="M136,247.8L136,247.8c0,0.7-0.5,1.3-1.2,1.4c-1.9,0.4-3.5,2-3.9,3.9c-0.2,0.7-0.8,1.2-1.4,1.2l0,0
			c-1,0-1.7-0.9-1.4-1.8c0.7-3,3.1-5.5,6.1-6.1C135.1,246.1,136,246.8,136,247.8z"/>
	</g>
	<path class="st5" d="M148,254.5c0,6.3-5.2,11.5-11.5,11.5c-0.2,0-0.3,0-0.5,0v-23c0.2,0,0.3,0,0.5,0C142.8,243,148,248.1,148,254.5
		z"/>
	<g>
		<path class="st4" d="M249.6,256.4h12.9v2.1h-12.9V256.4z M255,251.1h2.1v12.6H255V251.1z"/>
	</g>
	<path class="st6" d="M306.1,256c0,27.7-22.4,50.1-50.1,50.1V205.9C283.7,205.9,306.1,228.3,306.1,256z"/>
</g>
</svg>
